<?xml version="1.0" encoding="UTF-8" standalone="no"?>
<!DOCTYPE svg PUBLIC "-//W3C//DTD SVG 1.1//EN" "http://www.w3.org/Graphics/SVG/1.1/DTD/svg11.dtd">
<svg version="1.1" xmlns="http://www.w3.org/2000/svg" xmlns:xlink="http://www.w3.org/1999/xlink" preserveAspectRatio="xMidYMid meet" viewBox="0 0 550 550" width="550" height="550"><defs><path d="M456.88 322.83C455.97 321.51 454.88 320.33 453.65 319.3C450.09 316.06 445.71 312.77 440.99 313.59C439.52 313.91 438.11 314.43 436.78 315.13C436.09 315.45 435.4 315.77 434.69 316.04C432.7 316.87 430.49 317.06 428.38 316.59C427.3 316.3 426.3 315.78 425.23 315.45C424.72 315.3 424.2 315.19 423.68 315.12C424.71 314.65 425.71 314.12 426.67 313.54C431.98 310.26 436.21 304.36 435.61 298.12C435.42 296.01 434.69 293.99 433.97 292C433.03 289.39 432.27 287.29 432.08 286.77C431.26 284.5 430.42 282.2 428.93 280.32C427.27 278.22 424.91 276.8 422.47 275.74C417.23 273.46 411.51 272.66 405.85 271.89C405.83 271.88 405.7 271.87 405.46 271.83C405.46 235.19 405.46 214.83 405.46 210.76C405.47 208.59 403.72 206.82 401.55 206.81C401.54 206.81 401.54 206.81 401.53 206.81C400.78 206.81 394.83 206.81 394.09 206.81C393.6 203.8 393.21 201.4 393.11 200.79C392.17 195.09 391.2 189.27 388.57 184.13C386.85 180.76 384.11 177.55 380.42 176.89C379.69 176.82 378.97 176.66 378.29 176.4C377.21 175.87 376.62 174.69 375.79 173.81C373.64 171.57 370.16 171.53 367.28 170.37C364.75 169.37 362.67 167.46 360.36 166C358.05 164.54 355.18 163.5 352.61 164.46C352.61 164.64 352.58 164.82 352.56 165.01C352.4 164.94 351.08 164.35 350.92 164.27C349.15 163.46 347.34 162.61 345.92 161.27C344.09 159.54 343.12 157.26 342.36 154.84C342.28 154.58 342.21 154.34 342.13 154.07C345.28 150.86 347.4 146.8 348.25 142.39C348.38 142.82 348.52 143.25 348.65 143.68C348.77 144.12 348.94 144.55 349.14 144.96C349.21 145.09 349.29 145.22 349.37 145.34C349.54 145.59 349.74 145.8 349.97 145.97C350.21 146.14 350.48 146.24 350.77 146.28C350.9 146.3 351.04 146.3 351.18 146.28C351.93 146.12 352.56 145.59 352.83 144.87C352.91 144.67 352.97 144.47 353 144.27C353.02 144.14 353.03 144.02 353.04 143.89C353.04 143.85 353.04 143.82 353.04 143.78C353.04 143.74 353.04 143.6 353.04 143.52C353.04 143.44 353.04 143.43 353.04 143.38C353.04 143.34 353.04 143.22 353.04 143.14C353.04 143.12 353.04 143.02 353.04 143.01C353.04 142.91 353.01 142.81 352.99 142.72C352.97 142.63 352.99 142.67 352.99 142.64C352.96 142.51 352.93 142.39 352.91 142.26C352.91 142.23 352.91 142.21 352.91 142.18C352.9 142.16 352.88 142.05 352.84 141.87L352.79 141.68L352.79 141.63C352.79 141.63 352.79 141.63 352.79 141.63C352.74 141.44 352.7 141.24 352.65 141.05C352.3 139.34 352.21 137.59 352.38 135.85C352.68 133.31 353.15 130.78 353.79 128.3C353.8 128.27 353.83 128.12 353.89 127.85C353.96 127.54 354 127.37 354.01 127.33C354.09 126.98 354.16 126.63 354.24 126.27C354.24 126.27 354.24 126.27 354.24 126.27C354.3 125.97 354.36 125.67 354.41 125.36C354.47 125.06 354.51 124.83 354.55 124.56C354.55 124.52 354.55 124.49 354.55 124.46C354.85 122.63 354.93 120.77 354.79 118.91C354.79 118.91 354.79 118.91 354.79 118.91C354.56 116.34 353.76 113.91 352.01 111.97C350.78 110.6 349.15 109.58 348.01 108.14C346.93 106.79 346.33 105.13 345.22 103.81C342.14 100.14 334.27 97.32 329.43 96.82C323.89 96.26 314.94 97.68 310.47 100.95C308.82 102.16 307.69 103.9 306.54 105.56C304.43 108.64 302.03 111.7 298.64 113.42C297.36 114.07 295.89 114.56 295.04 115.69C294.53 116.46 294.19 117.33 294.06 118.25C293.4 121.45 293.06 124.71 293.04 127.98C292.97 129.41 293.15 130.84 293.59 132.21C293.65 132.39 293.74 132.58 293.83 132.77C293.83 132.77 293.83 132.77 293.83 132.77C293.91 132.93 293.99 133.09 294.09 133.26C294.09 133.27 294.14 133.35 294.15 133.36C294.74 134.21 295.27 135.11 295.72 136.04C295.83 136.3 295.91 136.58 295.96 136.86C296.04 137.58 296 138.31 295.82 139.01C295.82 139.01 295.82 139.01 295.82 139.01C295.82 139.12 295.78 139.22 295.76 139.33C295.75 139.35 295.72 139.53 295.71 139.55C295.71 139.62 295.71 139.7 295.67 139.77C295.62 140.08 295.58 140.34 295.57 140.4C295.57 140.55 295.54 140.7 295.54 140.85C295.5 141.46 295.62 142.07 295.88 142.62C295.94 142.75 296.02 142.88 296.11 142.99C296.28 143.23 296.51 143.42 296.77 143.56C297.36 143.78 297.97 143.93 298.59 143.99C300.43 144.41 301.58 145.81 302.33 147.54C302.49 147.92 302.64 148.32 302.76 148.72C303.07 149.73 303.3 150.76 303.45 151.8C304.29 151.76 304.77 151.02 305.07 150.22C305.16 149.95 305.24 149.68 305.3 149.4C305.41 148.89 305.53 148.37 305.64 147.86C307.58 151.97 310.71 155.42 314.62 157.75C314.76 158.15 314.89 158.56 315.01 158.97C315.66 161.2 315.97 163.53 314.85 165.48C314.05 166.86 312.71 167.71 311.22 168.3C311 168.02 310.72 167.78 310.41 167.61C309.11 166.96 307.56 167.75 306.47 168.72C304.51 170.5 302.91 173.05 300.31 173.64C299.38 173.85 298.35 173.81 297.57 174.38C297.05 174.86 296.62 175.43 296.29 176.06C295.15 177.69 293.26 178.64 291.26 178.56C290.36 178.52 289.29 178.31 288.68 178.97C288.22 179.46 288.19 180.24 287.7 180.71C287.03 181.36 285.96 181.04 285.03 181C283.68 181 282.39 181.56 281.47 182.54C281.41 180.56 280.65 178.66 279.33 177.19C278 175.82 276.16 175.12 274.58 174.05C270.65 171.37 268.68 166.67 266.63 162.37C264.58 158.06 261.88 153.52 257.41 151.95C256.38 151.59 254.95 151.56 254.49 152.55C254.33 152.97 254.31 153.43 254.42 153.86C254.85 156.15 256.48 157.99 257.89 159.83C260.26 162.94 262.26 166.74 261.68 170.62C261.01 175.22 256.91 178.78 256.42 183.4C256.2 185.43 256.72 187.48 256.72 189.52C256.72 190.8 256.51 192.09 256.79 193.34C257.08 194.28 257.43 195.21 257.83 196.12C258.27 197.6 258.5 199.14 258.5 200.69C259.03 210.46 259.44 218.29 259.54 220.24C259.8 225.1 258.74 229.9 257.67 234.68C256.34 237.52 255.31 240.48 254.59 243.53C253.38 248.85 253.35 254.53 255.08 259.71C256.01 262.52 257.44 265.16 258.2 268.03C258.2 268.09 258.23 268.15 258.24 268.21C258.32 268.82 258.4 269.43 258.51 270.03C258.65 270.73 258.84 271.42 259.06 272.1C259.28 273.26 259.65 274.4 260.14 275.48C260.83 276.84 261.84 278.03 263.09 278.92C262.38 280.3 261.24 281.42 260.48 282.77C259.15 285.12 259.09 288.01 259.58 290.67C260.51 295.82 263.28 300.41 266.95 304.15C266.79 304.14 266.62 304.14 266.46 304.15C265.26 304.28 264.11 304.69 263.1 305.35C255.33 309.89 250.9 319.61 252.52 328.5C252.84 330.24 253.39 332 254.55 333.32C255.52 334.38 256.76 335.14 258.14 335.52C259 335.78 259.88 335.95 260.78 336.01C266.83 336.5 272.69 333.7 278.75 333.46C280.76 333.43 282.77 333.52 284.77 333.74C289.15 334.11 292.67 334.16 293.55 334.2C298.31 334.32 301 333.05 304.04 329.49C304.79 328.6 305.41 327.62 305.89 326.57C308.48 326.42 311.33 326.19 313.4 326.02C313.41 326.05 313.43 326.28 313.43 326.31C313.55 327.29 313.72 328.42 314.51 329.05C314.95 329.35 315.45 329.55 315.98 329.65C320.95 330.87 325.98 332.11 331.09 332.11C333.49 332.06 335.89 331.87 338.27 331.55C339.17 331.45 346.36 330.62 347.26 330.51C349.88 330.85 352.46 331.41 354.98 332.19C357.58 333.08 360.01 334.39 362.54 335.42C368.44 337.82 374.79 338.67 381.08 339.51C382.15 339.65 383.38 339.75 384.18 339.02C385.2 338.03 384.85 336.39 384.57 335.01C384.45 334.45 384.36 333.88 384.29 333.31C388.53 334.43 392.68 335.87 396.7 337.62C396.78 337.65 397.34 337.9 397.41 337.93C397.61 339 398.61 339.86 399.56 341.02C399.87 341.5 400.23 341.95 400.64 342.36C401.11 342.67 401.64 342.86 402.2 342.92C408.84 344.16 415.63 344.47 422.35 343.83C423.73 343.65 425.12 343.6 426.51 343.69C427.52 343.83 428.53 344.06 429.51 344.37C430.07 344.53 434.63 345.83 435.2 346C439.39 347.2 443.69 348.42 448.04 348.14C448.92 348.09 449.8 347.96 450.67 347.77C454.11 346.97 457.32 345.04 458.97 341.95C461.18 337.73 460.11 332.56 458.84 327.96C458.35 326.18 457.86 324.37 456.88 322.83ZM290.25 257.22C289.64 258.46 288.85 259.59 288.28 260.83C287.74 261.95 287.34 264.07 287.1 266.4C286.8 266.35 286.5 266.3 286.21 266.27C286.65 264.73 286.97 263.16 287.41 261.62C288.45 257.97 290.15 254.51 291.89 251.07C291.71 253.21 291.16 255.29 290.25 257.22Z" id="cqkB2diuI"></path><linearGradient id="gradientbfesbXhC5" gradientUnits="userSpaceOnUse" x1="356.19" y1="348.18" x2="356.19" y2="96.69"><stop style="stop-color: #808080;stop-opacity: 0.25" offset="0%"></stop><stop style="stop-color: #808080;stop-opacity: 0.12" offset="54%"></stop><stop style="stop-color: #808080;stop-opacity: 0.1" offset="100%"></stop></linearGradient><path d="M298.48 319.24C299.16 317.85 300.32 316.76 301.75 316.17C303.16 315.59 304.65 315.23 306.17 315.08C310.94 314.45 315.77 314.39 320.56 314.88C320.91 317.64 320.17 320.45 319.53 323.12C318.96 325.57 318.63 325.94 316.09 326.06C314.45 326.15 299.85 327.54 299.46 326.67C298.43 324.31 297.44 321.6 298.48 319.24Z" id="b4tO1eDbPE"></path><path d="M413.53 291.1C413.53 301.96 382.06 310.76 343.24 310.76C304.42 310.76 272.95 301.96 272.95 291.1C272.95 280.24 304.42 271.43 343.24 271.43C382.06 271.43 413.53 280.24 413.53 291.1Z" id="a2J6QHbFDX"></path><path d="M413.53 291.1C413.53 301.96 382.06 310.76 343.24 310.76C304.42 310.76 272.95 301.96 272.95 291.1C272.95 280.24 304.42 271.43 343.24 271.43C382.06 271.43 413.53 280.24 413.53 291.1Z" id="chIZOquVJ"></path><path d="M344.56 197.55C341.7 198.59 338.68 199.16 335.64 199.25C332.3 199.4 328.89 199.18 325.76 198.04C321.55 196.52 318.05 193.4 315.43 189.77C312.81 186.14 311.01 181.99 309.44 177.81C308.62 175.63 307.83 173.31 308.22 171.01C310.75 170.43 313.52 169.59 314.83 167.34C315.95 165.41 315.64 163.1 314.99 160.9C314.81 160.28 314.6 159.66 314.39 159.06C313.9 157.64 312.2 154.93 313.38 153.71C314.13 152.94 317.28 152.55 318.37 152.04C321.72 150.5 324.8 148.27 328.48 147.54C331.66 146.9 334.94 147.5 338.12 148.16C338.54 148.22 338.94 148.36 339.31 148.58C339.72 148.93 340.03 149.39 340.19 149.91C341.1 152.11 341.63 154.55 342.36 156.84C343.11 159.24 344.09 161.5 345.91 163.21C347.33 164.54 349.14 165.37 350.91 166.19C351.34 166.39 354.83 167.98 355.26 168.18C356.04 168.47 356.74 168.93 357.32 169.51C357.89 170.3 358.23 171.22 358.31 172.19C359.09 177.36 358.22 182.65 355.84 187.3C353.43 191.96 349.43 195.59 344.56 197.55Z" id="b13gEV0uxL"></path><path d="M314.99 160.9C314.81 160.28 314.6 159.66 314.39 159.06C313.9 157.64 312.2 154.93 313.38 153.71C314.13 152.94 317.28 152.55 318.37 152.04C321.72 150.5 324.8 148.27 328.48 147.54C331.66 146.9 334.94 147.5 338.12 148.16C338.54 148.22 338.94 148.36 339.31 148.58C339.72 148.93 340.03 149.39 340.19 149.91C341.08 152.11 341.61 154.55 342.34 156.84C335.21 164.26 323.97 165.93 314.99 160.9Z" id="e7OBfXOPN"></path><path d="M326.89 117.58C313.93 117.58 303.42 128.42 303.42 141.8C303.42 155.17 313.93 166.02 326.89 166.02C339.85 166.02 350.36 155.17 350.36 141.8C350.36 128.42 339.85 117.58 326.89 117.58Z" id="k47Tofemld"></path><path d="M394.86 205.42C393.9 199.29 392.92 193.04 390.25 187.52C388.5 183.9 385.72 180.46 381.97 179.74C381.23 179.67 380.51 179.49 379.81 179.21C378.72 178.64 378.12 177.37 377.27 176.43C375.1 174.02 371.55 173.98 368.64 172.76C366.06 171.69 363.95 169.64 361.61 168.07C359.26 166.5 356.34 165.4 353.74 166.4C353.32 171.18 352.88 176.06 350.98 180.41C346.41 190.9 334.74 195.44 324.92 190.55C323.68 189.93 322.5 189.17 321.4 188.28C316.95 184.7 314.1 179.18 312.77 173.4C312.45 171.99 312.08 170.38 310.86 169.73C309.55 169.03 307.97 169.88 306.87 170.92C304.85 172.83 303.24 175.57 300.61 176.22C299.67 176.46 298.62 176.41 297.83 177.02C297.3 177.54 296.87 178.15 296.53 178.82C295.36 180.58 293.44 181.6 291.42 181.52C290.51 181.47 289.43 181.25 288.8 181.96C288.34 182.49 288.3 183.32 287.8 183.82C287.13 184.52 286.04 184.18 285.1 184.14C283.32 184.06 281.67 185.28 280.65 186.81C279.63 188.34 279.15 190.23 278.65 192.07C284.11 205.05 289.1 218.06 294.56 231.04C294.81 231.53 294.95 232.09 294.95 232.65C294.84 233.23 294.61 233.77 294.27 234.25C291.6 238.84 291.68 244.62 291.98 250.02C292.27 255.42 292.63 261.12 290.37 265.96C289.76 267.29 288.96 268.51 288.38 269.84C287.01 272.84 286.52 282.47 287.31 285.7C298.6 285.7 388.86 285.7 400.14 285.7C397.99 279.38 398.81 266.69 399.26 259.98C399.57 255.29 398.76 250.59 398.41 245.9C397.68 236.31 398.23 227.21 396.74 217.64C396.37 215.2 395.04 206.64 394.86 205.42Z" id="c2mCBjRU4"></path><path d="M405.8 272.67C411.45 273.44 417.18 274.24 422.42 276.49C424.87 277.54 427.21 278.95 428.88 281.02C430.35 282.88 431.21 285.16 432.03 287.41C432.22 287.93 433.73 292.05 433.91 292.57C434.63 294.53 435.36 296.54 435.56 298.63C436.15 304.82 431.92 310.65 426.6 313.86C421.27 317.08 415 318.22 408.9 319.42C402.8 320.62 396.67 321.95 390.59 323.36C387.75 324.09 384.87 324.66 381.97 325.05C375.46 325.79 368.66 324.7 362.47 326.86C360.02 327.72 357.6 328.99 355.05 329.59C353.36 329.96 351.65 330.24 349.93 330.41C348.76 330.55 339.39 331.62 338.22 331.75C335.84 332.07 333.45 332.25 331.05 332.3C325.93 332.3 320.91 331.09 315.94 329.88C315.41 329.79 314.91 329.59 314.47 329.29C313.68 328.67 313.51 327.57 313.39 326.58C312.64 319.99 312.21 314.7 312.08 313.38C311.96 311.95 311.87 310.4 312.65 309.2C313.64 307.73 315.55 307.26 317.3 306.98C324.72 305.76 332.24 305.24 339.76 305.42C342.61 302.56 347.32 302.55 351.06 301C352.44 300.36 353.77 299.64 355.05 298.83C361.74 294.93 369.21 292.56 376.93 291.91C378.44 291.87 379.94 291.65 381.4 291.27C384.3 290.37 386.94 287.93 389.91 288.53C390.28 287.51 390.54 286.15 391.39 285.45C391.81 285.09 392.33 284.85 392.72 284.47C393.54 283.63 393.61 282.33 393.49 281.17C393.37 280.01 393.09 278.82 393.39 277.69C393.52 277.26 393.7 276.85 393.94 276.47C395.42 273.89 397.64 272.59 400.61 272.84C402.24 272.21 404.05 272.44 405.8 272.67Z" id="a4pAXbXRH8"></path><path d="M405.8 272.67C411.45 273.44 417.18 274.24 422.42 276.49C424.87 277.54 427.21 278.95 428.88 281.02C430.35 282.88 431.21 285.16 432.03 287.41C432.22 287.93 433.73 292.05 433.91 292.57C434.63 294.53 435.36 296.54 435.56 298.63C436.15 304.82 431.92 310.65 426.6 313.86C421.27 317.08 415 318.22 408.9 319.42C402.8 320.62 396.67 321.95 390.59 323.36C387.75 324.09 384.87 324.66 381.97 325.05C375.46 325.79 368.66 324.7 362.47 326.86C360.02 327.72 357.6 328.99 355.05 329.59C353.36 329.96 351.65 330.24 349.93 330.41C348.76 330.55 339.39 331.62 338.22 331.75C335.84 332.07 333.45 332.25 331.05 332.3C325.93 332.3 320.91 331.09 315.94 329.88C315.41 329.79 314.91 329.59 314.47 329.29C313.68 328.67 313.51 327.57 313.39 326.58C312.64 319.99 312.21 314.7 312.08 313.38C311.96 311.95 311.87 310.4 312.65 309.2C313.64 307.73 315.55 307.26 317.3 306.98C324.72 305.76 332.24 305.24 339.76 305.42C342.61 302.56 347.32 302.55 351.06 301C352.44 300.36 353.77 299.64 355.05 298.83C361.74 294.93 369.21 292.56 376.93 291.91C378.44 291.87 379.94 291.65 381.4 291.27C384.3 290.37 386.94 287.93 389.91 288.53C390.28 287.51 390.54 286.15 391.39 285.45C391.81 285.09 392.33 284.85 392.72 284.47C393.54 283.63 393.61 282.33 393.49 281.17C393.37 280.01 393.09 278.82 393.39 277.69C393.52 277.26 393.7 276.85 393.94 276.47C395.42 273.89 397.64 272.59 400.61 272.84C402.24 272.21 404.05 272.44 405.8 272.67Z" id="b3XhFlOFQh"></path><path d="M293.5 334.38C289.11 334.28 285.6 333.97 284.72 333.92C282.73 333.71 280.72 333.61 278.71 333.64C272.64 333.88 266.79 336.66 260.74 336.17C259.84 336.1 258.96 335.94 258.1 335.68C256.73 335.3 255.5 334.55 254.53 333.51C253.37 332.2 252.82 330.46 252.5 328.74C250.88 319.92 255.31 310.32 263.08 305.83C264.09 305.17 265.24 304.76 266.44 304.63C267.61 304.63 268.77 304.88 269.84 305.38C269.85 305.38 269.91 305.41 269.91 305.41C273.07 306.71 275.93 308.62 278.34 311.03C278.7 311.45 279.14 311.8 279.63 312.07C280.11 312.25 280.63 312.35 281.14 312.36C281.79 312.4 286.96 312.72 287.6 312.76C288.7 312.8 289.79 312.95 290.85 313.21C292.02 313.62 293.16 314.11 294.26 314.69C297.73 316.24 301.59 316.65 305.34 317.25C305.71 317.27 306.05 317.41 306.33 317.64C306.48 317.83 306.58 318.05 306.63 318.28C307.7 322.3 306.71 326.57 303.99 329.71C300.94 333.24 298.27 334.49 293.5 334.38Z" id="cIi6qsw1T"></path><path d="M269.89 305.41C267.39 307.8 265.21 310.52 263.43 313.49C260.57 318.39 258.77 323.84 258.15 329.49C257.92 331.54 257.9 333.62 258.1 335.68C256.73 335.3 255.5 334.55 254.53 333.51C253.37 332.2 252.82 330.46 252.5 328.74C250.88 319.92 255.31 310.32 263.08 305.83C264.09 305.17 265.24 304.76 266.44 304.63C267.61 304.63 268.77 304.88 269.84 305.38C269.85 305.39 269.88 305.4 269.89 305.41Z" id="b3dBXvmhWc"></path><path d="M405.92 320.65C408.51 323.6 408.86 328.46 409.03 332.84C409.05 333.34 409.2 337.41 409.22 337.92C409.28 339.47 409.33 341.06 408.84 342.5C407.95 345.02 405.52 346.23 403.3 346.09C401.08 345.94 399.04 344.73 397.01 343.63C391.5 340.67 385.77 338.41 379.89 336.89C380.18 331.62 380.76 327.45 380.85 326.4C381.16 323.99 381.21 319.95 382.5 317.95C383.86 315.84 385.64 316.98 387.49 317.37C390.09 317.87 392.72 318.04 395.35 317.89C399.05 317.77 403.2 317.54 405.92 320.65Z" id="a3R8yApWa2"></path><path d="M299.06 277.91C298.51 273.68 295.32 270.2 291.61 268.5C287.9 266.81 283.67 266.72 279.65 267.12C273.57 267.73 266.77 270.18 264.53 276.17C264 277.57 263.76 279.08 263.12 280.43C262.4 281.9 261.24 283.08 260.46 284.51C259.13 286.99 259.07 290.03 259.55 292.83C260.85 300.31 265.7 306.7 271.58 311.13C277.46 315.56 284.34 318.21 291.19 320.59C309.31 326.89 327.91 331.57 346.77 334.58C349.83 335.06 352.92 335.51 355.84 336.55C358.46 337.47 360.92 338.86 363.48 339.95C369.43 342.47 375.84 343.37 382.19 344.25C383.27 344.4 384.51 344.5 385.31 343.73C386.34 342.72 386 340.96 385.7 339.51C384.63 334.01 385.53 328.28 388.23 323.44C389.29 321.56 390.67 319.63 390.47 317.45C390.24 314.91 387.83 313.11 385.44 312.7C383.05 312.29 380.62 312.89 378.22 313.22C377.39 313.34 376.48 313.41 375.73 312.97C375.38 312.71 375.05 312.41 374.77 312.07C371.38 308.62 366.26 307.86 362.1 310.2C361.21 310.72 359.86 309.56 358.94 309.12C357.9 308.62 349.56 304.63 348.51 304.14C336.52 298.42 324.48 292.68 311.79 289.06C310.78 288.85 309.82 288.43 308.96 287.82C308.33 287.3 307.88 286.59 307.3 286.01C306.03 284.75 304.27 284.25 302.75 283.35C301.24 282.46 299.55 280.27 299.91 278.47C299.91 279 299.13 278.47 299.06 277.91Z" id="fu7mTqKeA"></path><path d="M449.61 352.67C448.77 352.9 447.9 353.04 447.04 353.1C442.76 353.41 438.55 352.03 434.43 350.67C433.87 350.49 429.4 349.01 428.84 348.83C427.88 348.48 426.89 348.22 425.89 348.06C424.54 347.96 423.17 348.01 421.82 348.23C415.21 348.94 408.55 348.59 402.03 347.19C401.48 347.12 400.96 346.9 400.5 346.56C400.1 346.09 399.74 345.58 399.43 345.03C397.91 342.9 396.28 341.66 398.08 338.84C399.11 337.21 401.04 336.4 401.85 334.52C402.65 332.65 402.14 329.99 401.66 328.06C401.01 325.38 398.86 324.23 398.1 321.78C397.52 319.93 398.49 317.78 399.94 316.77C401.39 315.77 403.19 315.69 404.86 315.95C406.54 316.2 408.18 316.76 409.86 316.91C414.82 317.37 419.88 314.39 424.63 316.07C425.68 316.44 426.67 317.03 427.73 317.36C429.8 317.9 431.97 317.68 433.93 316.73C434.62 316.43 435.3 316.06 435.98 315.7C437.28 314.91 438.67 314.33 440.1 313.97C444.74 313.04 449.04 316.78 452.54 320.43C453.75 321.59 454.81 322.93 455.71 324.42C456.67 326.18 457.18 328.22 457.64 330.23C458.92 335.45 459.97 341.31 457.76 346.09C456.14 349.59 452.99 351.77 449.61 352.67Z" id="c1ruHWcHi8"></path><path d="M450.57 347.78C451.91 345.18 452.51 342.26 452.32 339.34C452.02 334.67 449.97 330.26 447.35 326.38C445.74 323.99 443.9 321.76 441.87 319.71C440.31 318.14 438.39 316.89 436.71 315.45C438.03 314.76 439.45 314.25 440.91 313.93C445.63 313.12 450.01 316.39 453.58 319.58C454.8 320.59 455.88 321.77 456.8 323.07C457.78 324.6 458.3 326.38 458.76 328.14C460.04 332.72 461.12 337.84 458.87 342.02C457.22 345.08 454.01 346.99 450.57 347.78Z" id="h1yW4AvjyF"></path><path d="M306.48 108.05C304.36 111.09 301.96 114.13 298.57 115.83C297.29 116.47 295.83 116.96 294.98 118.08C294.47 118.84 294.14 119.7 294.02 120.6C293.37 123.77 293.03 127 293.01 130.23C293.01 131.85 293.07 133.51 293.79 134.97C294.46 136.35 295.67 137.51 295.93 139.01C296.12 140.18 295.68 141.35 295.53 142.52C295.38 143.7 295.65 145.09 296.73 145.65C297.32 145.87 297.93 146.01 298.55 146.08C301.82 146.8 302.91 150.64 303.41 153.81C304.52 153.74 305.02 152.47 305.25 151.43C305.6 149.92 308.32 137.8 308.66 136.29C309.03 134.65 309.64 132.75 311.28 132.17C312.38 131.79 313.58 132.15 314.72 132.24C319.22 132.61 323.02 129.14 327.42 128.18C328.83 127.9 330.27 127.8 331.7 127.9C335.17 128.07 339.21 129.5 339.95 132.74C340.07 133.26 340.14 133.89 340.64 134.15C341.13 134.41 341.62 134.19 342.16 134.15C344.36 133.93 345.66 136.41 346.29 138.43C346.52 139.17 348.37 145.07 348.6 145.81C348.95 146.92 349.53 148.23 350.74 148.38C351.85 148.51 352.8 147.46 352.97 146.41C353.14 145.36 352.77 144.28 352.53 143.23C351.44 138.38 353.11 133.43 354.12 128.58C355.13 123.73 355.31 118.15 351.92 114.42C350.68 113.06 349.06 112.06 347.91 110.63C346.84 109.29 346.23 107.65 345.12 106.34C342.05 102.72 334.17 99.92 329.34 99.46C323.84 98.85 314.87 100.25 310.41 103.49C308.76 104.69 307.63 106.4 306.48 108.05Z" id="b42nJKO9BD"></path><path d="M348.62 142.36C347.47 138.67 346.54 135.72 346.31 134.99C345.68 132.96 344.38 130.48 342.18 130.71C341.69 130.76 341.11 130.96 340.66 130.71C340.2 130.45 340.09 129.82 339.97 129.29C339.23 126.05 335.19 124.63 331.72 124.45C330.29 124.36 328.85 124.45 327.44 124.73C323.02 125.72 319.24 129.16 314.74 128.8C313.58 128.71 312.38 128.35 311.3 128.73C309.64 129.3 309.05 131.19 308.68 132.85C308.34 134.36 305.61 146.47 305.27 147.99C305.04 149.03 304.54 150.3 303.43 150.36C302.94 147.2 301.84 143.36 298.57 142.64C297.95 142.57 297.34 142.42 296.75 142.21C296.32 141.97 295.99 141.6 295.8 141.15C295.71 141.61 295.61 142.07 295.55 142.52C295.4 143.69 295.66 145.09 296.75 145.65C297.34 145.87 297.95 146.01 298.57 146.08C301.84 146.8 302.93 150.64 303.43 153.81C304.54 153.74 305.04 152.47 305.27 151.43C305.61 149.92 308.34 137.8 308.68 136.29C309.05 134.65 309.66 132.75 311.3 132.17C312.4 131.79 313.6 132.15 314.74 132.24C319.24 132.61 323.04 129.14 327.44 128.18C328.84 127.9 330.28 127.8 331.7 127.9C335.17 128.07 339.21 129.5 339.95 132.74C340.07 133.26 340.14 133.89 340.64 134.15C341.13 134.41 341.62 134.19 342.16 134.15C344.36 133.93 345.66 136.41 346.29 138.43C347.44 142.12 348.37 145.07 348.6 145.81C348.95 146.92 349.53 148.23 350.74 148.38C351.85 148.51 352.8 147.46 352.97 146.41C353.04 145.53 352.94 144.64 352.67 143.8C352.32 144.53 351.56 144.97 350.76 144.93C349.55 144.78 348.97 143.46 348.62 142.36Z" id="a4WDijHt33"></path><path d="M293.79 131.53C293.37 130.6 293.12 129.6 293.06 128.58C293.06 129.13 293.02 129.68 293.01 130.24C293.01 131.85 293.08 133.51 293.79 134.98C294.34 136.09 295.24 137.08 295.69 138.21C295.93 137.35 296.01 136.46 295.93 135.57C295.68 134.07 294.46 132.91 293.79 131.53Z" id="a1whsXBZzS"></path><path d="M352.28 138.06C352.56 134.89 353.48 131.7 354.14 128.55C354.68 126.17 354.87 123.71 354.71 121.27C354.6 122.56 354.41 123.84 354.14 125.11C353.24 129.4 351.85 133.76 352.28 138.06Z" id="i1jcKMNnKX"></path><path d="M287.38 262.52C286.7 264.87 286.3 267.31 285.32 269.54C283.36 274.04 279.31 277.3 275 279.6C273.43 280.51 271.71 281.14 269.92 281.45C265.89 281.92 261.99 279.85 260.13 276.25C259.01 273.96 258.85 271.33 258.17 268.87C257.4 266.04 255.98 263.42 255.05 260.64C253.34 255.51 253.37 249.9 254.56 244.63C255.68 240.04 257.46 235.65 259.83 231.57C260.18 230.97 260.52 230.37 260.88 229.77C261.9 228.05 263.04 226.41 264.29 224.86C267.24 221.3 271.03 218.57 274.78 215.88C275.07 215.64 275.4 215.47 275.76 215.38C275.77 215.38 275.82 215.38 275.82 215.38C276.24 215.37 276.66 215.47 277.04 215.67C282.24 217.92 287.23 220.62 291.95 223.75C293.64 224.88 296.31 226.13 297.2 228.05C298.08 229.97 297.99 233.22 297.87 235.3C297.27 245.06 290.11 253.13 287.38 262.52Z" id="a2gv4VR6hk"></path><path d="M277.26 192.12C273.29 201.08 270.94 210.67 270.33 220.45C270.34 220.92 270.23 221.4 270.01 221.82C269.79 222.1 269.55 222.36 269.29 222.6C268.32 223.75 268.47 225.46 269.61 226.42C269.66 226.46 269.7 226.5 269.75 226.53C270.56 225 272.5 224.51 274.23 224.37C282.49 223.72 290.56 227.56 298.85 227.27C298.27 225.25 297.42 223.31 296.95 221.27C294.84 212.19 300.1 202.3 296.87 193.56C296.23 191.81 295.15 190.09 293.46 189.32C292.76 189.04 292.02 188.84 291.27 188.74C289.18 188.36 285.01 186.75 282.98 187.4C282.24 187.64 281.94 188.34 281.32 188.76C280.4 189.37 279.15 189.58 278.35 190.38C277.87 190.88 277.5 191.47 277.26 192.12Z" id="d3uGRMx9g"></path><path d="M269.45 278.79C268.1 278.82 266.77 278.58 265.52 278.07C262.38 276.68 260.6 273.25 259.94 269.88C259.29 266.5 259.49 263.02 259.03 259.62C258.65 256.9 257.86 254.27 257.44 251.56C256.43 244.86 258.43 238.25 259.85 231.58C260.19 230.97 260.54 230.37 260.9 229.78C261.91 228.06 263.05 226.41 264.3 224.86C267.25 221.31 271.04 218.57 274.79 215.88C274.4 215.88 271.26 215.88 270.86 215.88C271.16 215.66 271.58 215.73 271.8 216.03C271.87 216.12 271.92 216.23 271.93 216.35C272.32 219.79 277.17 223.23 278.23 226.57C278.88 228.63 279.67 230.64 280.19 232.74C280.61 234.52 280.92 236.32 281.14 238.14C282.18 245.78 283.01 251.86 283.22 253.38C284.09 259.57 284.84 266.26 281.74 271.66C279.17 276.02 274.51 278.72 269.45 278.79Z" id="b2eTUhQAtH"></path><path d="M279.97 192.24C280.68 190.01 281.4 187.75 281.48 185.41C281.57 183.07 280.95 180.62 279.32 178.95C277.99 177.59 276.15 176.9 274.58 175.84C270.65 173.19 268.68 168.55 266.63 164.28C264.58 160.01 261.88 155.54 257.41 153.96C256.38 153.59 254.95 153.56 254.49 154.55C254.33 154.96 254.3 155.41 254.42 155.84C254.85 158.11 256.47 159.92 257.89 161.74C260.26 164.81 262.25 168.57 261.68 172.41C261 176.96 256.91 180.49 256.42 185.07C256.2 187.09 256.72 189.11 256.72 191.14C256.72 192.39 256.51 193.68 256.79 194.91C257.08 195.86 257.43 196.79 257.83 197.7C258.26 199.17 258.49 200.69 258.5 202.23C258.61 204.16 259.44 219.64 259.54 221.57C260.1 232.04 254.42 242.22 255.99 252.54C256.4 255.25 257.2 257.88 257.57 260.6C258.06 264 257.83 267.48 258.49 270.85C259.15 274.23 260.95 277.66 264.06 279.04C265.31 279.56 266.65 279.8 268 279.77C273.06 279.7 277.71 276.99 280.28 272.63C283.38 267.23 282.63 260.55 281.79 254.38C281.58 252.86 279.91 240.67 279.7 239.15C279.49 237.33 279.18 235.52 278.76 233.74C278.24 231.64 277.45 229.63 276.79 227.57C274.69 220.85 273.11 213.79 275.23 207.12C276.18 204.14 279.5 193.73 279.97 192.24Z" id="l7AbDkwVvO"></path><path d="M401.5 208.27C404.11 208.27 405.42 209.58 405.42 212.19C405.42 249.37 405.42 270.02 405.42 274.15C405.42 276.76 404.11 278.07 401.5 278.07C340.43 278.07 306.51 278.07 299.72 278.07C297.11 278.07 295.8 276.76 295.8 274.15C295.8 236.97 295.8 216.32 295.8 212.19C295.8 209.58 297.11 208.27 299.72 208.27C360.79 208.27 394.71 208.27 401.5 208.27Z" id="a1J10BC14E"></path><path d="M401.5 208.27C404.11 208.27 405.42 209.8 405.42 212.86C405.42 256.38 405.42 280.56 405.42 285.39C405.42 288.45 404.11 289.98 401.5 289.98C340.43 289.98 306.51 289.98 299.72 289.98C297.11 289.98 295.8 288.45 295.8 285.39C295.8 241.87 295.8 217.69 295.8 212.86C295.8 209.8 297.11 208.27 299.72 208.27C360.79 208.27 394.71 208.27 401.5 208.27Z" id="abXWSXYEk"></path><path d="M350.36 240.22C348.73 240.22 347.41 241.54 347.41 243.17C347.41 244.8 348.73 246.12 350.36 246.12C351.99 246.12 353.31 244.8 353.31 243.17C353.31 241.54 351.99 240.22 350.36 240.22Z" id="a1pH9sJpG5"></path><path d="M226.98 300.36C233.76 300.36 239.27 305.86 239.27 312.65C239.27 313.86 239.27 319.94 239.27 330.89L208.74 330.89C208.74 319.94 208.74 313.86 208.74 312.65C208.74 305.86 214.24 300.36 221.03 300.36C222.22 300.36 226.38 300.36 226.98 300.36Z" id="l7DGQdFKk"></path><path d="M226.98 300.36C233.76 300.36 239.27 305.86 239.27 312.65C239.27 313.86 239.27 319.94 239.27 330.89L208.74 330.89C208.74 319.94 208.74 313.86 208.74 312.65C208.74 305.86 214.24 300.36 221.03 300.36C222.22 300.36 226.38 300.36 226.98 300.36Z" id="dcToSe6s"></path><path d="M222.78 302.19C221.44 302.19 220.34 303.28 220.34 304.63C220.34 305.98 221.44 307.08 222.78 307.08C224.13 307.08 225.23 305.98 225.23 304.63C225.23 303.28 224.13 302.19 222.78 302.19Z" id="ablfIWinm"></path><path d="M222.78 299.14C221.44 299.14 220.34 300.23 220.34 301.58C220.34 302.93 221.44 304.02 222.78 304.02C224.13 304.02 225.23 302.93 225.23 301.58C225.23 300.23 224.13 299.14 222.78 299.14Z" id="d2hXrPPnLm"></path><path d="M222.78 296.09C221.44 296.09 220.34 297.18 220.34 298.53C220.34 299.88 221.44 300.97 222.78 300.97C224.13 300.97 225.23 299.88 225.23 298.53C225.23 297.18 224.13 296.09 222.78 296.09Z" id="e5rpvymv"></path><path d="M222.78 293.03C221.44 293.03 220.34 294.13 220.34 295.48C220.34 296.83 221.44 297.92 222.78 297.92C224.13 297.92 225.23 296.83 225.23 295.48C225.23 294.13 224.13 293.03 222.78 293.03Z" id="b2zP41iVdn"></path><path d="M222.78 289.98C221.44 289.98 220.34 291.07 220.34 292.42C220.34 293.77 221.44 294.87 222.78 294.87C224.13 294.87 225.23 293.77 225.23 292.42C225.23 291.07 224.13 289.98 222.78 289.98Z" id="a1yKj89tGa"></path><path d="M222.78 286.93C221.44 286.93 220.34 288.02 220.34 289.37C220.34 290.72 221.44 291.81 222.78 291.81C224.13 291.81 225.23 290.72 225.23 289.37C225.23 288.02 224.13 286.93 222.78 286.93Z" id="afn9eBLen"></path><path d="M222.78 283.88C221.44 283.88 220.34 284.97 220.34 286.32C220.34 287.67 221.44 288.76 222.78 288.76C224.13 288.76 225.23 287.67 225.23 286.32C225.23 284.97 224.13 283.88 222.78 283.88Z" id="a2e2Iz8LUW"></path><path d="M226.45 285.09C225.1 285.09 224 286.19 224 287.54C224 288.89 225.1 289.98 226.45 289.98C227.8 289.98 228.89 288.89 228.89 287.54C228.89 286.19 227.8 285.09 226.45 285.09Z" id="fN48jv6Qi"></path><path d="M228.89 283.88C227.54 283.88 226.45 284.97 226.45 286.32C226.45 287.67 227.54 288.76 228.89 288.76C230.24 288.76 231.33 287.67 231.33 286.32C231.33 284.97 230.24 283.88 228.89 283.88Z" id="bidBPp8E"></path><path d="M231.33 282.65C229.98 282.65 228.89 283.75 228.89 285.09C228.89 286.44 229.98 287.54 231.33 287.54C232.68 287.54 233.78 286.44 233.78 285.09C233.78 283.75 232.68 282.65 231.33 282.65Z" id="cYtfGTzTz"></path><path d="M222.78 280.82C221.44 280.82 220.34 281.91 220.34 283.26C220.34 284.61 221.44 285.7 222.78 285.7C224.13 285.7 225.23 284.61 225.23 283.26C225.23 281.91 224.13 280.82 222.78 280.82Z" id="a1gk3kG2ew"></path><path d="M222.78 277.77C221.44 277.77 220.34 278.86 220.34 280.21C220.34 281.56 221.44 282.65 222.78 282.65C224.13 282.65 225.23 281.56 225.23 280.21C225.23 278.86 224.13 277.77 222.78 277.77Z" id="d1aejnEQTb"></path><path d="M222.78 274.71C221.44 274.71 220.34 275.81 220.34 277.16C220.34 278.51 221.44 279.6 222.78 279.6C224.13 279.6 225.23 278.51 225.23 277.16C225.23 275.81 224.13 274.71 222.78 274.71Z" id="a7mQR01IDp"></path><path d="M222.78 271.66C221.44 271.66 220.34 272.75 220.34 274.1C220.34 275.45 221.44 276.55 222.78 276.55C224.13 276.55 225.23 275.45 225.23 274.1C225.23 272.75 224.13 271.66 222.78 271.66Z" id="bsz6NkD4Z"></path><path d="M232.91 266.22C232.3 266.31 231.69 266.38 231.08 266.42C231.65 265.92 232.17 265.38 232.65 264.8C232.31 263.78 231.82 262.81 231.18 261.94C230.57 262.28 229.91 262.49 229.21 262.56C228.61 262.65 228 262.71 227.39 262.75C228.21 261.97 228.99 261.15 229.73 260.3C225.47 256.47 218.91 256.81 215.08 261.07C211.25 265.33 211.6 271.89 215.85 275.72C220.11 279.55 226.67 279.2 230.5 274.94C232.22 273.03 233.17 270.56 233.16 267.99C233.16 267.39 233.11 266.79 233 266.2C232.98 266.21 232.93 266.22 232.91 266.22Z" id="a1OtONRFr"></path><path d="M239.02 279.05C238.41 279.14 237.8 279.2 237.19 279.24C237.84 278.66 238.44 278.03 239 277.36C235.73 276.51 232.39 278.47 231.54 281.74C230.69 285 232.65 288.34 235.92 289.2C239.18 290.05 242.52 288.09 243.37 284.82C244.01 282.39 243.09 279.83 241.07 278.35C240.45 278.74 239.74 278.98 239.02 279.05Z" id="g8cPRjXMR3"></path><path d="M219.12 285.09C217.77 285.09 216.67 286.19 216.67 287.54C216.67 288.89 217.77 289.98 219.12 289.98C220.47 289.98 221.56 288.89 221.56 287.54C221.56 286.19 220.47 285.09 219.12 285.09Z" id="c1SGY3G3Rq"></path><path d="M216.67 283.88C215.33 283.88 214.23 284.97 214.23 286.32C214.23 287.67 215.33 288.76 216.67 288.76C218.02 288.76 219.12 287.67 219.12 286.32C219.12 284.97 218.02 283.88 216.67 283.88Z" id="ax2AeDgPn"></path><path d="M214.23 282.65C212.88 282.65 211.79 283.75 211.79 285.09C211.79 286.44 212.88 287.54 214.23 287.54C215.58 287.54 216.67 286.44 216.67 285.09C216.67 283.75 215.58 282.65 214.23 282.65Z" id="m39UOem2XW"></path><path d="M206.55 279.05C207.15 279.14 207.76 279.2 208.37 279.24C207.72 278.66 207.12 278.03 206.56 277.36C209.83 276.51 213.17 278.47 214.02 281.74C214.88 285 212.92 288.34 209.65 289.2C206.38 290.05 203.04 288.09 202.19 284.82C201.56 282.39 202.47 279.83 204.49 278.35C205.12 278.74 205.82 278.98 206.55 279.05Z" id="d2jYBiB7eO"></path><path d="M226.98 302.19C233.76 302.19 239.27 307.69 239.27 314.48C239.27 316.09 239.27 329.02 239.27 330.64C239.27 331.79 238.33 332.72 237.18 332.72C237.18 332.72 237.18 332.72 237.18 332.72C234.55 332.72 213.46 332.72 210.82 332.72C209.67 332.72 208.74 331.79 208.74 330.64C208.74 330.64 208.74 330.64 208.74 330.64C208.74 329.02 208.74 316.09 208.74 314.48C208.74 307.69 214.24 302.19 221.03 302.19C222.22 302.19 226.38 302.19 226.98 302.19Z" id="b8TnRyTHWr"></path><path d="M232.31 267.64C232.59 267.64 232.86 267.6 233.14 267.57C233.13 267.34 233.12 267.11 233.09 266.89C232.84 267.16 232.58 267.41 232.31 267.64Z" id="czqeHBukp"></path><path d="M230.47 263.78C231.01 263.71 231.55 263.57 232.06 263.35C231.81 262.86 231.52 262.39 231.2 261.94C230.89 262.12 230.56 262.26 230.22 262.36C229.73 262.94 229.21 263.48 228.64 263.97C229.25 263.93 229.86 263.87 230.47 263.78Z" id="aknJLqpwQ"></path><path d="M223.96 258.84C225.96 258.83 227.92 259.41 229.6 260.49C229.61 260.47 229.74 260.34 229.75 260.32C225.48 256.51 218.92 256.9 215.11 261.18C211.3 265.45 211.69 272.01 215.97 275.82C216 275.85 216.04 275.88 216.08 275.92C214.49 274.05 213.62 271.67 213.62 269.22C213.61 263.5 218.24 258.85 223.96 258.84Z" id="fJw4cU0XR"></path><path d="M239.02 280.27C239.74 280.2 240.45 279.96 241.07 279.58C242.47 280.61 243.36 282.18 243.53 283.9C243.55 283.69 243.56 283.48 243.56 283.26C243.57 281.32 242.66 279.5 241.1 278.35C240.48 278.73 239.78 278.96 239.05 279.03C239 279.04 238.61 279.09 238.56 279.09C238.14 279.58 237.68 280.04 237.19 280.46C237.8 280.42 238.41 280.36 239.02 280.27Z" id="dZkhWYKmY"></path><path d="M238.05 278.42C238.37 278.08 238.68 277.72 239 277.36C235.75 276.49 232.41 278.43 231.54 281.68C231.4 282.19 231.33 282.73 231.33 283.26C231.33 283.47 231.33 283.67 231.36 283.87C231.68 280.75 234.3 278.37 237.44 278.38C237.64 278.38 237.84 278.39 238.05 278.42Z" id="c5tgOOK4Dw"></path><path d="M206.55 280.27C205.82 280.2 205.12 279.96 204.49 279.58C203.1 280.61 202.21 282.18 202.04 283.9C202.01 283.69 202 283.48 202 283.26C201.99 281.32 202.91 279.5 204.46 278.35C205.08 278.73 205.79 278.96 206.51 279.03C206.56 279.04 206.96 279.09 207.01 279.09C207.42 279.59 207.88 280.04 208.37 280.46C207.76 280.42 207.15 280.36 206.55 280.27Z" id="b22aZK1jZM"></path><path d="M207.51 278.42C207.2 278.08 206.88 277.72 206.56 277.36C209.82 276.49 213.16 278.43 214.03 281.68C214.16 282.19 214.23 282.73 214.23 283.26C214.23 283.47 214.23 283.67 214.2 283.87C213.89 280.75 211.26 278.37 208.13 278.38C207.92 278.38 207.72 278.39 207.51 278.42Z" id="a1q6PKcXtb"></path><path d="M188.91 88.33C188.91 88.33 188.91 88.33 188.91 88.33C188.91 114.28 188.91 128.7 188.91 131.59C188.91 131.59 188.91 131.59 188.91 131.59C122.26 131.59 85.23 131.59 77.83 131.59C77.83 131.59 77.83 131.59 77.83 131.59C77.83 105.63 77.83 91.21 77.83 88.33C77.83 88.33 77.83 88.33 77.83 88.33C144.48 88.33 181.51 88.33 188.91 88.33Z" id="c2Qer58JM"></path><path d="M251.27 86.41C255.2 86.41 257.17 88.37 257.17 92.31C257.17 111.18 257.17 121.67 257.17 123.77C257.17 127.7 255.2 129.66 251.27 129.66C148.93 129.66 92.08 129.66 80.71 129.66C76.77 129.66 74.81 127.7 74.81 123.77C74.81 104.89 74.81 94.4 74.81 92.31C74.81 88.37 76.77 86.41 80.71 86.41C183.04 86.41 239.9 86.41 251.27 86.41Z" id="gECn6uFrM"></path><path d="M167.28 100.65C164.62 101.18 162.35 102.88 161.11 105.29C157.2 105.7 154.36 109.2 154.78 113.11C155.16 116.74 158.23 119.5 161.88 119.48C163.42 119.48 175.78 119.48 177.32 119.48C180.61 119.48 183.27 116.81 183.26 113.52C183.27 110.41 180.85 107.82 177.74 107.64C176.78 102.82 172.1 99.69 167.28 100.65ZM170.91 111.15L170.91 115.66L167.1 115.66L167.1 111.15L163.07 111.15L169.01 105.2L174.94 111.15L170.91 111.15Z" id="f1wvekMJ5b"></path></defs><g><g><g><use xlink:href="#cqkB2diuI" opacity="1" fill="url(#gradientbfesbXhC5)"></use><g><use xlink:href="#cqkB2diuI" opacity="1" fill-opacity="0" stroke="#000000" stroke-width="1" stroke-opacity="0"></use></g></g><g><use xlink:href="#b4tO1eDbPE" opacity="1" fill="#fbbebe" fill-opacity="1"></use><g><use xlink:href="#b4tO1eDbPE" opacity="1" fill-opacity="0" stroke="#000000" stroke-width="1" stroke-opacity="0"></use></g></g><g><use xlink:href="#a2J6QHbFDX" opacity="1" fill="#464353" fill-opacity="1"></use><g><use xlink:href="#a2J6QHbFDX" opacity="1" fill-opacity="0" stroke="#000000" stroke-width="1" stroke-opacity="0"></use></g></g><g><use xlink:href="#chIZOquVJ" opacity="1" fill="#000000" fill-opacity="1"></use><g><use xlink:href="#chIZOquVJ" opacity="1" fill-opacity="0" stroke="#000000" stroke-width="1" stroke-opacity="0"></use></g></g><g><use xlink:href="#b13gEV0uxL" opacity="1" fill="#fbbebe" fill-opacity="1"></use><g><use xlink:href="#b13gEV0uxL" opacity="1" fill-opacity="0" stroke="#000000" stroke-width="1" stroke-opacity="0"></use></g></g><g><use xlink:href="#e7OBfXOPN" opacity="1" fill="#000000" fill-opacity="1"></use><g><use xlink:href="#e7OBfXOPN" opacity="1" fill-opacity="0" stroke="#000000" stroke-width="1" stroke-opacity="0"></use></g></g><g><use xlink:href="#k47Tofemld" opacity="1" fill="#fbbebe" fill-opacity="1"></use><g><use xlink:href="#k47Tofemld" opacity="1" fill-opacity="0" stroke="#000000" stroke-width="1" stroke-opacity="0"></use></g></g><g><use xlink:href="#c2mCBjRU4" opacity="1" fill="#f86d70" fill-opacity="1"></use><g><use xlink:href="#c2mCBjRU4" opacity="1" fill-opacity="0" stroke="#000000" stroke-width="1" stroke-opacity="0"></use></g></g><g><use xlink:href="#a4pAXbXRH8" opacity="1" fill="#464353" fill-opacity="1"></use><g><use xlink:href="#a4pAXbXRH8" opacity="1" fill-opacity="0" stroke="#000000" stroke-width="1" stroke-opacity="0"></use></g></g><g><use xlink:href="#b3XhFlOFQh" opacity="1" fill="#000000" fill-opacity="1"></use><g><use xlink:href="#b3XhFlOFQh" opacity="1" fill-opacity="0" stroke="#000000" stroke-width="1" stroke-opacity="0"></use></g></g><g><use xlink:href="#cIi6qsw1T" opacity="1" fill="#3f3d56" fill-opacity="1"></use><g><use xlink:href="#cIi6qsw1T" opacity="1" fill-opacity="0" stroke="#000000" stroke-width="1" stroke-opacity="0"></use></g></g><g><use xlink:href="#b3dBXvmhWc" opacity="1" fill="#000000" fill-opacity="1"></use><g><use xlink:href="#b3dBXvmhWc" opacity="1" fill-opacity="0" stroke="#000000" stroke-width="1" stroke-opacity="0"></use></g></g><g><use xlink:href="#a3R8yApWa2" opacity="1" fill="#fbbebe" fill-opacity="1"></use><g><use xlink:href="#a3R8yApWa2" opacity="1" fill-opacity="0" stroke="#000000" stroke-width="1" stroke-opacity="0"></use></g></g><g><use xlink:href="#fu7mTqKeA" opacity="1" fill="#464353" fill-opacity="1"></use><g><use xlink:href="#fu7mTqKeA" opacity="1" fill-opacity="0" stroke="#000000" stroke-width="1" stroke-opacity="0"></use></g></g><g><use xlink:href="#c1ruHWcHi8" opacity="1" fill="#3f3d56" fill-opacity="1"></use><g><use xlink:href="#c1ruHWcHi8" opacity="1" fill-opacity="0" stroke="#000000" stroke-width="1" stroke-opacity="0"></use></g></g><g><use xlink:href="#h1yW4AvjyF" opacity="1" fill="#000000" fill-opacity="1"></use><g><use xlink:href="#h1yW4AvjyF" opacity="1" fill-opacity="0" stroke="#000000" stroke-width="1" stroke-opacity="0"></use></g></g><g><use xlink:href="#b42nJKO9BD" opacity="1" fill="#3f3d56" fill-opacity="1"></use><g><use xlink:href="#b42nJKO9BD" opacity="1" fill-opacity="0" stroke="#000000" stroke-width="1" stroke-opacity="0"></use></g></g><g><use xlink:href="#a4WDijHt33" opacity="1" fill="#000000" fill-opacity="1"></use><g><use xlink:href="#a4WDijHt33" opacity="1" fill-opacity="0" stroke="#000000" stroke-width="1" stroke-opacity="0"></use></g></g><g><use xlink:href="#a1whsXBZzS" opacity="1" fill="#000000" fill-opacity="1"></use><g><use xlink:href="#a1whsXBZzS" opacity="1" fill-opacity="0" stroke="#000000" stroke-width="1" stroke-opacity="0"></use></g></g><g><use xlink:href="#i1jcKMNnKX" opacity="1" fill="#000000" fill-opacity="1"></use><g><use xlink:href="#i1jcKMNnKX" opacity="1" fill-opacity="0" stroke="#000000" stroke-width="1" stroke-opacity="0"></use></g></g><g><use xlink:href="#a2gv4VR6hk" opacity="1" fill="#fbbebe" fill-opacity="1"></use><g><use xlink:href="#a2gv4VR6hk" opacity="1" fill-opacity="0" stroke="#000000" stroke-width="1" stroke-opacity="0"></use></g></g><g><use xlink:href="#d3uGRMx9g" opacity="1" fill="#f86d70" fill-opacity="1"></use><g><use xlink:href="#d3uGRMx9g" opacity="1" fill-opacity="0" stroke="#000000" stroke-width="1" stroke-opacity="0"></use></g></g><g><use xlink:href="#b2eTUhQAtH" opacity="1" fill="#000000" fill-opacity="1"></use><g><use xlink:href="#b2eTUhQAtH" opacity="1" fill-opacity="0" stroke="#000000" stroke-width="1" stroke-opacity="0"></use></g></g><g><use xlink:href="#l7AbDkwVvO" opacity="1" fill="#fbbebe" fill-opacity="1"></use><g><use xlink:href="#l7AbDkwVvO" opacity="1" fill-opacity="0" stroke="#000000" stroke-width="1" stroke-opacity="0"></use></g></g><g><use xlink:href="#a1J10BC14E" opacity="1" fill="#3f3d56" fill-opacity="1"></use><g><use xlink:href="#a1J10BC14E" opacity="1" fill-opacity="0" stroke="#000000" stroke-width="1" stroke-opacity="0"></use></g></g><g><use xlink:href="#abXWSXYEk" opacity="1" fill="#000000" fill-opacity="1"></use><g><use xlink:href="#abXWSXYEk" opacity="1" fill-opacity="0" stroke="#000000" stroke-width="1" stroke-opacity="0"></use></g></g><g><use xlink:href="#a1pH9sJpG5" opacity="1" fill="#ffffff" fill-opacity="1"></use><g><use xlink:href="#a1pH9sJpG5" opacity="1" fill-opacity="0" stroke="#000000" stroke-width="1" stroke-opacity="0"></use></g></g><g><use xlink:href="#l7DGQdFKk" opacity="1" fill="#3f3d56" fill-opacity="1"></use><g><use xlink:href="#l7DGQdFKk" opacity="1" fill-opacity="0" stroke="#000000" stroke-width="1" stroke-opacity="0"></use></g></g><g><use xlink:href="#dcToSe6s" opacity="1" fill="#000000" fill-opacity="1"></use><g><use xlink:href="#dcToSe6s" opacity="1" fill-opacity="0" stroke="#000000" stroke-width="1" stroke-opacity="0"></use></g></g><g><use xlink:href="#ablfIWinm" opacity="1" fill="#3f3d56" fill-opacity="1"></use><g><use xlink:href="#ablfIWinm" opacity="1" fill-opacity="0" stroke="#000000" stroke-width="1" stroke-opacity="0"></use></g></g><g><use xlink:href="#d2hXrPPnLm" opacity="1" fill="#3f3d56" fill-opacity="1"></use><g><use xlink:href="#d2hXrPPnLm" opacity="1" fill-opacity="0" stroke="#000000" stroke-width="1" stroke-opacity="0"></use></g></g><g><use xlink:href="#e5rpvymv" opacity="1" fill="#3f3d56" fill-opacity="1"></use><g><use xlink:href="#e5rpvymv" opacity="1" fill-opacity="0" stroke="#000000" stroke-width="1" stroke-opacity="0"></use></g></g><g><use xlink:href="#b2zP41iVdn" opacity="1" fill="#3f3d56" fill-opacity="1"></use><g><use xlink:href="#b2zP41iVdn" opacity="1" fill-opacity="0" stroke="#000000" stroke-width="1" stroke-opacity="0"></use></g></g><g><use xlink:href="#a1yKj89tGa" opacity="1" fill="#3f3d56" fill-opacity="1"></use><g><use xlink:href="#a1yKj89tGa" opacity="1" fill-opacity="0" stroke="#000000" stroke-width="1" stroke-opacity="0"></use></g></g><g><use xlink:href="#afn9eBLen" opacity="1" fill="#3f3d56" fill-opacity="1"></use><g><use xlink:href="#afn9eBLen" opacity="1" fill-opacity="0" stroke="#000000" stroke-width="1" stroke-opacity="0"></use></g></g><g><use xlink:href="#a2e2Iz8LUW" opacity="1" fill="#3f3d56" fill-opacity="1"></use><g><use xlink:href="#a2e2Iz8LUW" opacity="1" fill-opacity="0" stroke="#000000" stroke-width="1" stroke-opacity="0"></use></g></g><g><use xlink:href="#fN48jv6Qi" opacity="1" fill="#3f3d56" fill-opacity="1"></use><g><use xlink:href="#fN48jv6Qi" opacity="1" fill-opacity="0" stroke="#000000" stroke-width="1" stroke-opacity="0"></use></g></g><g><use xlink:href="#bidBPp8E" opacity="1" fill="#3f3d56" fill-opacity="1"></use><g><use xlink:href="#bidBPp8E" opacity="1" fill-opacity="0" stroke="#000000" stroke-width="1" stroke-opacity="0"></use></g></g><g><use xlink:href="#cYtfGTzTz" opacity="1" fill="#3f3d56" fill-opacity="1"></use><g><use xlink:href="#cYtfGTzTz" opacity="1" fill-opacity="0" stroke="#000000" stroke-width="1" stroke-opacity="0"></use></g></g><g><use xlink:href="#a1gk3kG2ew" opacity="1" fill="#3f3d56" fill-opacity="1"></use><g><use xlink:href="#a1gk3kG2ew" opacity="1" fill-opacity="0" stroke="#000000" stroke-width="1" stroke-opacity="0"></use></g></g><g><use xlink:href="#d1aejnEQTb" opacity="1" fill="#3f3d56" fill-opacity="1"></use><g><use xlink:href="#d1aejnEQTb" opacity="1" fill-opacity="0" stroke="#000000" stroke-width="1" stroke-opacity="0"></use></g></g><g><use xlink:href="#a7mQR01IDp" opacity="1" fill="#3f3d56" fill-opacity="1"></use><g><use xlink:href="#a7mQR01IDp" opacity="1" fill-opacity="0" stroke="#000000" stroke-width="1" stroke-opacity="0"></use></g></g><g><use xlink:href="#bsz6NkD4Z" opacity="1" fill="#3f3d56" fill-opacity="1"></use><g><use xlink:href="#bsz6NkD4Z" opacity="1" fill-opacity="0" stroke="#000000" stroke-width="1" stroke-opacity="0"></use></g></g><g><use xlink:href="#a1OtONRFr" opacity="1" fill="#6c63ff" fill-opacity="1"></use><g><use xlink:href="#a1OtONRFr" opacity="1" fill-opacity="0" stroke="#000000" stroke-width="1" stroke-opacity="0"></use></g></g><g><use xlink:href="#g8cPRjXMR3" opacity="1" fill="#6c63ff" fill-opacity="1"></use><g><use xlink:href="#g8cPRjXMR3" opacity="1" fill-opacity="0" stroke="#000000" stroke-width="1" stroke-opacity="0"></use></g></g><g><use xlink:href="#c1SGY3G3Rq" opacity="1" fill="#3f3d56" fill-opacity="1"></use><g><use xlink:href="#c1SGY3G3Rq" opacity="1" fill-opacity="0" stroke="#000000" stroke-width="1" stroke-opacity="0"></use></g></g><g><use xlink:href="#ax2AeDgPn" opacity="1" fill="#3f3d56" fill-opacity="1"></use><g><use xlink:href="#ax2AeDgPn" opacity="1" fill-opacity="0" stroke="#000000" stroke-width="1" stroke-opacity="0"></use></g></g><g><use xlink:href="#m39UOem2XW" opacity="1" fill="#3f3d56" fill-opacity="1"></use><g><use xlink:href="#m39UOem2XW" opacity="1" fill-opacity="0" stroke="#000000" stroke-width="1" stroke-opacity="0"></use></g></g><g><use xlink:href="#d2jYBiB7eO" opacity="1" fill="#6c63ff" fill-opacity="1"></use><g><use xlink:href="#d2jYBiB7eO" opacity="1" fill-opacity="0" stroke="#000000" stroke-width="1" stroke-opacity="0"></use></g></g><g><use xlink:href="#b8TnRyTHWr" opacity="1" fill="#3f3d56" fill-opacity="1"></use><g><use xlink:href="#b8TnRyTHWr" opacity="1" fill-opacity="0" stroke="#000000" stroke-width="1" stroke-opacity="0"></use></g></g><g><use xlink:href="#czqeHBukp" opacity="1" fill="#000000" fill-opacity="1"></use><g><use xlink:href="#czqeHBukp" opacity="1" fill-opacity="0" stroke="#000000" stroke-width="1" stroke-opacity="0"></use></g></g><g><use xlink:href="#aknJLqpwQ" opacity="1" fill="#000000" fill-opacity="1"></use><g><use xlink:href="#aknJLqpwQ" opacity="1" fill-opacity="0" stroke="#000000" stroke-width="1" stroke-opacity="0"></use></g></g><g><use xlink:href="#fJw4cU0XR" opacity="1" fill="#000000" fill-opacity="1"></use><g><use xlink:href="#fJw4cU0XR" opacity="1" fill-opacity="0" stroke="#000000" stroke-width="1" stroke-opacity="0"></use></g></g><g><use xlink:href="#dZkhWYKmY" opacity="1" fill="#000000" fill-opacity="1"></use><g><use xlink:href="#dZkhWYKmY" opacity="1" fill-opacity="0" stroke="#000000" stroke-width="1" stroke-opacity="0"></use></g></g><g><use xlink:href="#c5tgOOK4Dw" opacity="1" fill="#000000" fill-opacity="1"></use><g><use xlink:href="#c5tgOOK4Dw" opacity="1" fill-opacity="0" stroke="#000000" stroke-width="1" stroke-opacity="0"></use></g></g><g><use xlink:href="#b22aZK1jZM" opacity="1" fill="#000000" fill-opacity="1"></use><g><use xlink:href="#b22aZK1jZM" opacity="1" fill-opacity="0" stroke="#000000" stroke-width="1" stroke-opacity="0"></use></g></g><g><use xlink:href="#a1q6PKcXtb" opacity="1" fill="#000000" fill-opacity="1"></use><g><use xlink:href="#a1q6PKcXtb" opacity="1" fill-opacity="0" stroke="#000000" stroke-width="1" stroke-opacity="0"></use></g></g><g><use xlink:href="#c2Qer58JM" opacity="1" fill="#5965e4" fill-opacity="1"></use><g><use xlink:href="#c2Qer58JM" opacity="1" fill-opacity="0" stroke="#000000" stroke-width="1" stroke-opacity="0"></use></g></g><g><use xlink:href="#gECn6uFrM" opacity="1" fill="#000000" fill-opacity="0"></use><g><use xlink:href="#gECn6uFrM" opacity="1" fill-opacity="0" stroke="#3f3d56" stroke-width="9" stroke-opacity="1"></use></g></g><g><use xlink:href="#f1wvekMJ5b" opacity="1" fill="#ffffff" fill-opacity="1"></use><g><use xlink:href="#f1wvekMJ5b" opacity="1" fill-opacity="0" stroke="#000000" stroke-width="1" stroke-opacity="0"></use></g></g></g></g></svg>