<?xml version="1.0" encoding="UTF-8" standalone="no"?>
<!DOCTYPE svg PUBLIC "-//W3C//DTD SVG 1.1//EN" "http://www.w3.org/Graphics/SVG/1.1/DTD/svg11.dtd">
<svg version="1.1" xmlns="http://www.w3.org/2000/svg" xmlns:xlink="http://www.w3.org/1999/xlink" preserveAspectRatio="xMidYMid meet" viewBox="0 0 450 450" width="1100" height="1100"><defs><path d="M362.52 94.63C364.46 94.63 365.44 95.71 365.44 97.88C365.44 247.13 365.44 330.04 365.44 346.63C365.44 348.79 364.46 349.87 362.52 349.87C180.4 349.87 79.22 349.87 58.99 349.87C57.04 349.87 56.07 348.79 56.07 346.63C56.07 197.38 56.07 114.46 56.07 97.88C56.07 95.71 57.04 94.63 58.99 94.63C241.11 94.63 342.28 94.63 362.52 94.63Z" id="b35U17byi9"></path><path d="M362.45 94.96C363.81 94.96 364.91 96.14 364.91 97.6C364.91 100.93 364.91 127.64 364.91 130.98C364.91 132.43 363.81 133.61 362.45 133.61C353.93 133.61 311.34 133.61 234.67 133.61L234.67 94.96C311.34 94.96 353.93 94.96 362.45 94.96Z" id="bfvKEX3X7"></path><path d="M328.1 108.47C328.8 108.47 329.16 108.85 329.16 109.63C329.16 115.22 329.16 118.32 329.16 118.94C329.16 119.72 328.8 120.11 328.1 120.11C297.61 120.11 280.67 120.11 277.28 120.11C276.57 120.11 276.22 119.72 276.22 118.94C276.22 113.36 276.22 110.25 276.22 109.63C276.22 108.85 276.57 108.47 277.28 108.47C307.77 108.47 324.71 108.47 328.1 108.47Z" id="eHjC5SQpX"></path><path d="M167.19 108.47C167.94 108.47 168.31 108.85 168.31 109.63C168.31 115.22 168.31 118.32 168.31 118.94C168.31 119.72 167.94 120.11 167.19 120.11C134.78 120.11 116.77 120.11 113.17 120.11C112.42 120.11 112.04 119.72 112.04 118.94C112.04 113.36 112.04 110.25 112.04 109.63C112.04 108.85 112.42 108.47 113.17 108.47C145.58 108.47 163.59 108.47 167.19 108.47Z" id="f16ucjPaCr"></path><path d="M247.3 160.9C288.15 160.9 310.99 160.9 315.8 160.9C316.8 160.9 317.3 161.54 317.3 162.82C317.3 180.09 317.3 189.68 317.3 191.6C317.3 192.88 316.8 193.52 315.8 193.52C195.36 193.52 128.45 193.52 115.07 193.52C114.07 193.52 113.57 192.88 113.57 191.6C113.57 174.33 113.57 164.74 113.57 162.82C113.57 161.54 114.07 160.9 115.07 160.9L247.3 160.9Z" id="hf1xzcTaV"></path><path d="M315.78 202.7C316.79 202.7 317.3 203.34 317.3 204.62C317.3 221.89 317.3 231.48 317.3 233.4C317.3 234.68 316.79 235.32 315.78 235.32C193.5 235.32 125.57 235.32 111.98 235.32C110.97 235.32 110.46 234.68 110.46 233.4C110.46 216.13 110.46 206.54 110.46 204.62C110.46 203.34 110.97 202.7 111.98 202.7C234.26 202.7 302.19 202.7 315.78 202.7Z" id="ajXgj16Sq"></path><path d="M311.52 256.43C312.97 256.43 313.69 257.09 313.69 258.4C313.69 270.24 313.69 276.82 313.69 278.14C313.69 279.45 312.97 280.11 311.52 280.11C195.03 280.11 130.32 280.11 117.37 280.11C115.92 280.11 115.2 279.45 115.2 278.14C115.2 266.3 115.2 259.72 115.2 258.4C115.2 257.09 115.92 256.43 117.37 256.43C233.86 256.43 298.58 256.43 311.52 256.43Z" id="a55cKfYWWx"></path><path d="M301.26 264.45C302.21 264.45 302.69 264.92 302.69 265.88C302.69 268.45 302.69 269.88 302.69 270.16C302.69 271.11 302.21 271.59 301.26 271.59C280.69 271.59 269.26 271.59 266.97 271.59C266.02 271.59 265.54 271.11 265.54 270.16C265.54 267.59 265.54 266.16 265.54 265.88C265.54 264.92 266.02 264.45 266.97 264.45C287.54 264.45 298.97 264.45 301.26 264.45Z" id="f2O0EHIRMc"></path><path d="M289.95 285.93L285.52 275.4L288.15 274.29L292.58 284.82L292.58 284.82L289.95 285.93Z" id="a5gpGx0SC"></path><path d="M283.22 282.15L287.46 278.12L288.07 277.92L294.88 277.92L283.22 266.43L283.22 282.15Z" id="g9lvu7ClH"></path></defs><g><g><g><use xlink:href="#b35U17byi9" opacity="1" fill="#f3f3f3" fill-opacity="1"></use><g><use xlink:href="#b35U17byi9" opacity="1" fill-opacity="0" stroke="#000000" stroke-width="1" stroke-opacity="0"></use></g></g><g><use xlink:href="#bfvKEX3X7" opacity="1" fill="#d2d8d8" fill-opacity="1"></use><g><use xlink:href="#bfvKEX3X7" opacity="1" fill-opacity="0" stroke="#000000" stroke-width="1" stroke-opacity="0"></use></g></g><g><use xlink:href="#eHjC5SQpX" opacity="1" fill="#ffffff" fill-opacity="1"></use><g><use xlink:href="#eHjC5SQpX" opacity="1" fill-opacity="0" stroke="#000000" stroke-width="1" stroke-opacity="0"></use></g></g><g><use xlink:href="#f16ucjPaCr" opacity="1" fill="#343642" fill-opacity="1"></use><g><use xlink:href="#f16ucjPaCr" opacity="1" fill-opacity="0" stroke="#000000" stroke-width="1" stroke-opacity="0"></use></g></g><g><use xlink:href="#hf1xzcTaV" opacity="1" fill="#e41b1b" fill-opacity="0"></use><g><use xlink:href="#hf1xzcTaV" opacity="1" fill-opacity="0" stroke="#000000" stroke-width="2" stroke-opacity="1"></use></g></g><g><use xlink:href="#ajXgj16Sq" opacity="1" fill="#000000" fill-opacity="0"></use><g><use xlink:href="#ajXgj16Sq" opacity="1" fill-opacity="0" stroke="#000000" stroke-width="2" stroke-opacity="1"></use></g></g><g><use xlink:href="#a55cKfYWWx" opacity="1" fill="#6772e5" fill-opacity="1"></use><g><use xlink:href="#a55cKfYWWx" opacity="1" fill-opacity="0" stroke="#000000" stroke-width="1" stroke-opacity="0"></use></g></g><g><use xlink:href="#f2O0EHIRMc" opacity="1" fill="#ffffff" fill-opacity="1"></use><g><use xlink:href="#f2O0EHIRMc" opacity="1" fill-opacity="0" stroke="#000000" stroke-width="1" stroke-opacity="0"></use></g></g><g><use xlink:href="#a5gpGx0SC" opacity="1" fill="#000000" fill-opacity="1"></use><g><use xlink:href="#a5gpGx0SC" opacity="1" fill-opacity="0" stroke="#000000" stroke-width="1" stroke-opacity="0"></use></g></g><g><use xlink:href="#g9lvu7ClH" opacity="1" fill="#000000" fill-opacity="1"></use><g><use xlink:href="#g9lvu7ClH" opacity="1" fill-opacity="0" stroke="#000000" stroke-width="1" stroke-opacity="0"></use></g></g></g></g></svg>