<?xml version="1.0" encoding="UTF-8" standalone="no"?>
<!DOCTYPE svg PUBLIC "-//W3C//DTD SVG 1.1//EN" "http://www.w3.org/Graphics/SVG/1.1/DTD/svg11.dtd">
<svg version="1.1" xmlns="http://www.w3.org/2000/svg" xmlns:xlink="http://www.w3.org/1999/xlink" preserveAspectRatio="xMidYMid meet" viewBox="0 0 640 640" width="640" height="640"><defs><path d="M631.25 33.52C631.25 335.61 631.25 503.42 631.25 537C631.25 541.37 629.3 543.56 625.42 543.56C261.45 543.56 59.24 543.56 18.81 543.56C14.91 543.56 12.97 541.37 12.97 537C12.97 234.91 12.97 67.08 12.97 33.52C12.97 29.12 14.91 26.94 18.81 26.94C382.78 26.94 584.97 26.94 625.42 26.94C629.3 26.94 631.25 29.12 631.25 33.52Z" id="b3rHcEutCp"></path><path d="M603.04 39.52C603.04 46.26 603.04 100.32 603.04 107.08C603.04 110.02 600.84 112.41 598.12 112.41C581.1 112.41 495.98 112.41 342.75 112.41C342.75 104.58 342.75 42 342.75 34.18C495.98 34.18 581.1 34.18 598.12 34.18C600.84 34.18 603.04 36.56 603.04 39.52Z" id="n1oeH2mEV"></path><path d="M523.48 59.59C523.48 70.9 523.48 77.18 523.48 78.43C523.48 80.01 522.76 80.8 521.36 80.8C460.43 80.8 426.57 80.8 419.8 80.8C418.38 80.8 417.68 80.01 417.68 78.43C417.68 67.14 417.68 60.84 417.68 59.59C417.68 58.01 418.38 57.24 419.8 57.24C480.73 57.24 514.59 57.24 521.36 57.24C522.76 57.24 523.48 58.01 523.48 59.59Z" id="bWSEgV7tw"></path><path d="M501.81 47.81C501.81 59.12 501.81 65.4 501.81 66.65C501.81 68.23 501.09 69.02 499.7 69.02C438.76 69.02 404.91 69.02 398.13 69.02C396.71 69.02 396.01 68.23 396.01 66.65C396.01 55.36 396.01 49.06 396.01 47.81C396.01 46.23 396.71 45.46 398.13 45.46C459.07 45.46 492.92 45.46 499.7 45.46C501.09 45.46 501.81 46.23 501.81 47.81Z" id="g2S94m0PpR"></path><path d="M191.85 59.59C191.85 70.9 191.85 77.18 191.85 78.43C191.85 80.01 191.11 80.8 189.61 80.8C124.84 80.8 88.84 80.8 81.65 80.8C80.15 80.8 79.39 80.01 79.39 78.43C79.39 67.14 79.39 60.84 79.39 59.59C79.39 58.01 80.15 57.24 81.65 57.24C146.42 57.24 182.41 57.24 189.61 57.24C191.11 57.24 191.85 58.01 191.85 59.59Z" id="a5ftTk0lfE"></path><path d="M89.08 180.07C100.37 180.83 106.63 181.24 107.89 181.33C109.46 181.43 110.2 182.22 110.1 183.72C105.78 248.35 103.39 284.26 102.91 291.44C102.81 292.93 101.97 293.64 100.39 293.53C89.12 292.78 82.84 292.36 81.59 292.28C80.02 292.17 79.3 291.36 79.4 289.87C83.71 225.24 86.11 189.33 86.59 182.15C86.69 180.65 87.51 179.97 89.08 180.07Z" id="a3WMAv5XZL"></path><path d="M432.78 353.04C434.78 353.04 435.78 354.34 435.78 356.93C435.78 391.89 435.78 411.3 435.78 415.18C435.78 417.77 434.78 419.07 432.78 419.07C192.08 419.07 58.36 419.07 31.61 419.07C29.62 419.07 28.62 417.77 28.62 415.18C28.62 380.23 28.62 360.82 28.62 356.93C28.62 354.34 29.62 353.04 31.61 353.04C49.23 353.04 137.32 353.04 295.88 353.04C380.74 353.04 426.37 353.04 432.78 353.04Z" id="b9qMWMZQe"></path><path d="M514.27 277.86C516.27 277.86 517.27 279.16 517.27 281.75C517.27 316.7 517.27 336.11 517.27 340C517.27 342.59 516.27 343.89 514.27 343.89C273.57 343.89 139.85 343.89 113.11 343.89C111.11 343.89 110.11 342.59 110.11 340C110.11 305.04 110.11 285.63 110.11 281.75C110.11 279.16 111.11 277.86 113.11 277.86C130.72 277.86 218.81 277.86 377.37 277.86C462.23 277.86 507.86 277.86 514.27 277.86Z" id="aBT8Bh4hS"></path><path d="M435.78 441.54C435.78 476.49 435.78 495.9 435.78 499.79C435.78 502.38 434.76 503.67 432.74 503.67C188.36 503.67 52.6 503.67 25.44 503.67C23.42 503.67 22.4 502.38 22.4 499.79C22.4 464.83 22.4 445.42 22.4 441.54C22.4 438.94 23.42 437.65 25.44 437.65C269.82 437.65 405.58 437.65 432.74 437.65C434.76 437.65 435.78 438.94 435.78 441.54Z" id="a2eHMjx2F0"></path><path d="M523.48 361.97C523.48 396.93 523.48 416.34 523.48 420.23C523.48 422.82 522.46 424.11 520.44 424.11C276.07 424.11 140.31 424.11 113.15 424.11C111.13 424.11 110.11 422.82 110.11 420.23C110.11 385.27 110.11 365.86 110.11 361.97C110.11 359.38 111.13 358.09 113.15 358.09C357.52 358.09 493.28 358.09 520.44 358.09C522.46 358.09 523.48 359.38 523.48 361.97Z" id="c2igziLAEc"></path><path d="M512.03 441.27C512.03 465.24 512.03 478.55 512.03 481.23C512.03 483.88 510.59 485.21 507.69 485.21C274.89 485.21 145.56 485.21 119.68 485.21C116.78 485.21 115.34 483.88 115.34 481.23C115.34 457.26 115.34 443.94 115.34 441.27C115.34 438.62 116.78 437.28 119.68 437.28C352.49 437.28 481.83 437.28 507.69 437.28C510.59 437.28 512.03 438.62 512.03 441.27Z" id="a2F3Rlf8iS"></path><path d="M498.93 468.64C498.93 492.6 498.93 505.92 498.93 508.59C498.93 511.24 497.49 512.58 494.6 512.58C261.79 512.58 132.47 512.58 106.58 512.58C103.69 512.58 102.25 511.24 102.25 508.59C102.25 484.63 102.25 471.31 102.25 468.64C102.25 465.99 103.69 464.65 106.58 464.65C339.39 464.65 468.74 464.65 494.6 464.65C497.49 464.65 498.93 465.99 498.93 468.64Z" id="b1t5mLKsOg"></path><path d="M472.9 456.92C472.9 462.12 472.9 465.01 472.9 465.58C472.9 467.5 471.94 468.47 470.04 468.47C428.93 468.47 406.09 468.47 401.51 468.47C399.61 468.47 398.65 467.5 398.65 465.58C398.65 460.38 398.65 457.48 398.65 456.92C398.65 454.97 399.61 454.02 401.51 454.02C442.62 454.02 465.46 454.02 470.04 454.02C471.94 454.02 472.9 454.97 472.9 456.92Z" id="dWBBiDbbe"></path><path d="M476.59 471.37C476.59 476.57 476.59 479.46 476.59 480.03C476.59 481.95 475.63 482.93 473.73 482.93C432.62 482.93 409.78 482.93 405.2 482.93C403.3 482.93 402.34 481.95 402.34 480.03C402.34 474.83 402.34 471.94 402.34 471.37C402.34 469.43 403.3 468.47 405.2 468.47C446.31 468.47 469.16 468.47 473.73 468.47C475.63 468.47 476.59 469.43 476.59 471.37Z" id="a2u3YCRQM"></path><path d="M436.81 476.05L442.07 473.8L450.92 495.11L450.92 495.11L445.67 497.36L436.81 476.05Z" id="a2xYgMiPh"></path><path d="M448.91 538.81L454.17 536.57L463.02 557.88L463.02 557.88L457.77 560.13L448.91 538.81Z" id="b35JH5h0oR"></path><path d="M440.69 480.46L441.91 480.05L455.52 480.05L432.22 456.8L432.22 488.61L440.69 480.46Z" id="hvWipsLFX"></path><path d="M419.21 520.33L420.42 519.93L434.03 519.93L410.73 496.67L410.73 528.49L419.21 520.33Z" id="a1WPz7VM8X"></path><path d="M514.27 191.38C516.27 191.38 517.27 192.68 517.27 195.27C517.27 230.22 517.27 249.63 517.27 253.52C517.27 256.11 516.27 257.41 514.27 257.41C273.57 257.41 139.85 257.41 113.11 257.41C111.11 257.41 110.11 256.11 110.11 253.52C110.11 218.57 110.11 199.15 110.11 195.27C110.11 192.68 111.11 191.38 113.11 191.38C130.72 191.38 218.81 191.38 377.37 191.38C462.23 191.38 507.86 191.38 514.27 191.38Z" id="a26WBkhCN5"></path></defs><g><g><g><use xlink:href="#b3rHcEutCp" opacity="1" fill="#f3f3f3" fill-opacity="1"></use><g><use xlink:href="#b3rHcEutCp" opacity="1" fill-opacity="0" stroke="#000000" stroke-width="1" stroke-opacity="0"></use></g></g><g><use xlink:href="#n1oeH2mEV" opacity="1" fill="#d2d8d8" fill-opacity="1"></use><g><use xlink:href="#n1oeH2mEV" opacity="1" fill-opacity="0" stroke="#000000" stroke-width="1" stroke-opacity="0"></use></g></g><g><use xlink:href="#bWSEgV7tw" opacity="1" fill="#ffffff" fill-opacity="1"></use><g><use xlink:href="#bWSEgV7tw" opacity="1" fill-opacity="0" stroke="#000000" stroke-width="1" stroke-opacity="0"></use></g></g><g><use xlink:href="#g2S94m0PpR" opacity="1" fill="#000000" fill-opacity="0"></use><g><use xlink:href="#g2S94m0PpR" opacity="1" fill-opacity="0" stroke="#000000" stroke-width="1" stroke-opacity="0"></use></g></g><g><use xlink:href="#a5ftTk0lfE" opacity="1" fill="#343642" fill-opacity="1"></use><g><use xlink:href="#a5ftTk0lfE" opacity="1" fill-opacity="0" stroke="#000000" stroke-width="1" stroke-opacity="0"></use></g></g><g><use xlink:href="#a3WMAv5XZL" opacity="1" fill="#000000" fill-opacity="0"></use><g><use xlink:href="#a3WMAv5XZL" opacity="1" fill-opacity="0" stroke="#000000" stroke-width="1" stroke-opacity="0"></use></g></g><g><use xlink:href="#b9qMWMZQe" opacity="1" fill="#e41b1b" fill-opacity="0"></use><g><use xlink:href="#b9qMWMZQe" opacity="1" fill-opacity="0" stroke="#000000" stroke-width="1" stroke-opacity="0"></use></g></g><g><use xlink:href="#aBT8Bh4hS" opacity="1" fill="#000000" fill-opacity="0"></use><g><use xlink:href="#aBT8Bh4hS" opacity="1" fill-opacity="0" stroke="#000000" stroke-width="2" stroke-opacity="1"></use></g></g><g><use xlink:href="#a2eHMjx2F0" opacity="1" fill="#000000" fill-opacity="0"></use><g><use xlink:href="#a2eHMjx2F0" opacity="1" fill-opacity="0" stroke="#000000" stroke-width="1" stroke-opacity="0"></use></g></g><g><use xlink:href="#c2igziLAEc" opacity="1" fill="#000000" fill-opacity="0"></use><g><use xlink:href="#c2igziLAEc" opacity="1" fill-opacity="0" stroke="#000000" stroke-width="2" stroke-opacity="1"></use></g></g><g><use xlink:href="#a2F3Rlf8iS" opacity="1" fill="#6772e5" fill-opacity="1"></use><g><use xlink:href="#a2F3Rlf8iS" opacity="1" fill-opacity="0" stroke="#000000" stroke-width="1" stroke-opacity="0"></use></g></g><g><use xlink:href="#b1t5mLKsOg" opacity="1" fill="#000000" fill-opacity="0"></use><g><use xlink:href="#b1t5mLKsOg" opacity="1" fill-opacity="0" stroke="#000000" stroke-width="1" stroke-opacity="0"></use></g></g><g><use xlink:href="#dWBBiDbbe" opacity="1" fill="#ffffff" fill-opacity="1"></use><g><use xlink:href="#dWBBiDbbe" opacity="1" fill-opacity="0" stroke="#000000" stroke-width="1" stroke-opacity="0"></use></g></g><g><use xlink:href="#a2u3YCRQM" opacity="1" fill="#000000" fill-opacity="0"></use><g><use xlink:href="#a2u3YCRQM" opacity="1" fill-opacity="0" stroke="#000000" stroke-width="1" stroke-opacity="0"></use></g></g><g><use xlink:href="#a2xYgMiPh" opacity="1" fill="#000000" fill-opacity="1"></use><g><use xlink:href="#a2xYgMiPh" opacity="1" fill-opacity="0" stroke="#000000" stroke-width="1" stroke-opacity="0"></use></g></g><g><use xlink:href="#b35JH5h0oR" opacity="1" fill="#000000" fill-opacity="0"></use><g><use xlink:href="#b35JH5h0oR" opacity="1" fill-opacity="0" stroke="#000000" stroke-width="1" stroke-opacity="0"></use></g></g><g><use xlink:href="#hvWipsLFX" opacity="1" fill="#000000" fill-opacity="1"></use><g><use xlink:href="#hvWipsLFX" opacity="1" fill-opacity="0" stroke="#000000" stroke-width="1" stroke-opacity="0"></use></g></g><g><use xlink:href="#a1WPz7VM8X" opacity="1" fill="#000000" fill-opacity="0"></use><g><use xlink:href="#a1WPz7VM8X" opacity="1" fill-opacity="0" stroke="#000000" stroke-width="1" stroke-opacity="0"></use></g></g><g><use xlink:href="#a26WBkhCN5" opacity="1" fill="#000000" fill-opacity="0"></use><g><use xlink:href="#a26WBkhCN5" opacity="1" fill-opacity="0" stroke="#000000" stroke-width="2" stroke-opacity="1"></use></g></g></g></g></svg>