<?xml version="1.0" encoding="UTF-8" standalone="no"?>
<!DOCTYPE svg PUBLIC "-//W3C//DTD SVG 1.1//EN" "http://www.w3.org/Graphics/SVG/1.1/DTD/svg11.dtd">
<svg version="1.1" xmlns="http://www.w3.org/2000/svg" xmlns:xlink="http://www.w3.org/1999/xlink" preserveAspectRatio="xMidYMid meet" viewBox="0 0 450 450" width="750" height="750"><defs><path d="M362.52 94.63C364.46 94.63 365.44 95.71 365.44 97.88C365.44 247.13 365.44 330.04 365.44 346.63C365.44 348.79 364.46 349.87 362.52 349.87C180.4 349.87 79.22 349.87 58.99 349.87C57.04 349.87 56.07 348.79 56.07 346.63C56.07 197.38 56.07 114.46 56.07 97.88C56.07 95.71 57.04 94.63 58.99 94.63C241.11 94.63 342.28 94.63 362.52 94.63Z" id="b35U17byi9"></path><path d="M363.38 99.37C364.73 99.37 365.83 100.55 365.83 102C365.83 105.34 365.83 132.04 365.83 135.38C365.83 136.84 364.73 138.02 363.38 138.02C354.86 138.02 312.26 138.02 235.6 138.02L235.6 99.37C312.26 99.37 354.86 99.37 363.38 99.37Z" id="a3BHcpi6qN"></path><path d="M332.43 114.29C333.14 114.29 333.49 114.67 333.49 115.45C333.49 121.04 333.49 124.14 333.49 124.76C333.49 125.54 333.14 125.93 332.43 125.93C301.94 125.93 285 125.93 281.62 125.93C280.91 125.93 280.56 125.54 280.56 124.76C280.56 119.18 280.56 116.07 280.56 115.45C280.56 114.67 280.91 114.29 281.62 114.29C312.11 114.29 329.05 114.29 332.43 114.29Z" id="dAWKPqw3a"></path><path d="M165.61 114.29C166.36 114.29 166.73 114.67 166.73 115.45C166.73 121.04 166.73 124.14 166.73 124.76C166.73 125.54 166.36 125.93 165.61 125.93C133.2 125.93 115.19 125.93 111.59 125.93C110.84 125.93 110.46 125.54 110.46 124.76C110.46 119.18 110.46 116.07 110.46 115.45C110.46 114.67 110.84 114.29 111.59 114.29C144 114.29 162.01 114.29 165.61 114.29Z" id="b70d0H5Pz6"></path><path d="M247.3 160.9C288.15 160.9 310.99 160.9 315.8 160.9C316.8 160.9 317.3 161.54 317.3 162.82C317.3 180.09 317.3 189.68 317.3 191.6C317.3 192.88 316.8 193.52 315.8 193.52C195.36 193.52 128.45 193.52 115.07 193.52C114.07 193.52 113.57 192.88 113.57 191.6C113.57 174.33 113.57 164.74 113.57 162.82C113.57 161.54 114.07 160.9 115.07 160.9L247.3 160.9Z" id="hf1xzcTaV"></path><path d="M315.78 202.7C316.79 202.7 317.3 203.34 317.3 204.62C317.3 221.89 317.3 231.48 317.3 233.4C317.3 234.68 316.79 235.32 315.78 235.32C193.5 235.32 125.57 235.32 111.98 235.32C110.97 235.32 110.46 234.68 110.46 233.4C110.46 216.13 110.46 206.54 110.46 204.62C110.46 203.34 110.97 202.7 111.98 202.7C234.26 202.7 302.19 202.7 315.78 202.7Z" id="ajXgj16Sq"></path><path d="M311.52 256.43C312.97 256.43 313.69 257.09 313.69 258.4C313.69 270.24 313.69 276.82 313.69 278.14C313.69 279.45 312.97 280.11 311.52 280.11C195.03 280.11 130.32 280.11 117.37 280.11C115.92 280.11 115.2 279.45 115.2 278.14C115.2 266.3 115.2 259.72 115.2 258.4C115.2 257.09 115.92 256.43 117.37 256.43C233.86 256.43 298.58 256.43 311.52 256.43Z" id="a55cKfYWWx"></path><path d="M301.26 264.45C302.21 264.45 302.69 264.92 302.69 265.88C302.69 268.45 302.69 269.88 302.69 270.16C302.69 271.11 302.21 271.59 301.26 271.59C280.69 271.59 269.26 271.59 266.97 271.59C266.02 271.59 265.54 271.11 265.54 270.16C265.54 267.59 265.54 266.16 265.54 265.88C265.54 264.92 266.02 264.45 266.97 264.45C287.54 264.45 298.97 264.45 301.26 264.45Z" id="f2O0EHIRMc"></path><path d="M289.95 285.93L285.52 275.4L288.15 274.29L292.58 284.82L292.58 284.82L289.95 285.93Z" id="a5gpGx0SC"></path><path d="M283.22 282.15L287.46 278.12L288.07 277.92L294.88 277.92L283.22 266.43L283.22 282.15Z" id="g9lvu7ClH"></path></defs><g><g><g><use xlink:href="#b35U17byi9" opacity="1" fill="#f3f3f3" fill-opacity="1"></use><g><use xlink:href="#b35U17byi9" opacity="1" fill-opacity="0" stroke="#000000" stroke-width="1" stroke-opacity="0"></use></g></g><g><use xlink:href="#a3BHcpi6qN" opacity="1" fill="#d2d8d8" fill-opacity="1"></use><g><use xlink:href="#a3BHcpi6qN" opacity="1" fill-opacity="0" stroke="#000000" stroke-width="1" stroke-opacity="0"></use></g></g><g><use xlink:href="#dAWKPqw3a" opacity="1" fill="#ffffff" fill-opacity="1"></use><g><use xlink:href="#dAWKPqw3a" opacity="1" fill-opacity="0" stroke="#000000" stroke-width="1" stroke-opacity="0"></use></g></g><g><use xlink:href="#b70d0H5Pz6" opacity="1" fill="#343642" fill-opacity="1"></use><g><use xlink:href="#b70d0H5Pz6" opacity="1" fill-opacity="0" stroke="#000000" stroke-width="1" stroke-opacity="0"></use></g></g><g><use xlink:href="#hf1xzcTaV" opacity="1" fill="#e41b1b" fill-opacity="0"></use><g><use xlink:href="#hf1xzcTaV" opacity="1" fill-opacity="0" stroke="#000000" stroke-width="2" stroke-opacity="1"></use></g></g><g><use xlink:href="#ajXgj16Sq" opacity="1" fill="#000000" fill-opacity="0"></use><g><use xlink:href="#ajXgj16Sq" opacity="1" fill-opacity="0" stroke="#000000" stroke-width="2" stroke-opacity="1"></use></g></g><g><use xlink:href="#a55cKfYWWx" opacity="1" fill="#6772e5" fill-opacity="1"></use><g><use xlink:href="#a55cKfYWWx" opacity="1" fill-opacity="0" stroke="#000000" stroke-width="1" stroke-opacity="0"></use></g></g><g><use xlink:href="#f2O0EHIRMc" opacity="1" fill="#ffffff" fill-opacity="1"></use><g><use xlink:href="#f2O0EHIRMc" opacity="1" fill-opacity="0" stroke="#000000" stroke-width="1" stroke-opacity="0"></use></g></g><g><use xlink:href="#a5gpGx0SC" opacity="1" fill="#000000" fill-opacity="1"></use><g><use xlink:href="#a5gpGx0SC" opacity="1" fill-opacity="0" stroke="#000000" stroke-width="1" stroke-opacity="0"></use></g></g><g><use xlink:href="#g9lvu7ClH" opacity="1" fill="#000000" fill-opacity="1"></use><g><use xlink:href="#g9lvu7ClH" opacity="1" fill-opacity="0" stroke="#000000" stroke-width="1" stroke-opacity="0"></use></g></g></g></g></svg>