<?xml version="1.0" encoding="UTF-8" standalone="no"?>
<!DOCTYPE svg PUBLIC "-//W3C//DTD SVG 1.1//EN" "http://www.w3.org/Graphics/SVG/1.1/DTD/svg11.dtd">
<svg version="1.1" xmlns="http://www.w3.org/2000/svg" xmlns:xlink="http://www.w3.org/1999/xlink" preserveAspectRatio="xMidYMid meet" viewBox="0 0 640 640" width="740" height="740"><defs><path d="M631.25 33.52C631.25 335.61 631.25 503.42 631.25 537C631.25 541.37 629.3 543.56 625.42 543.56C261.45 543.56 59.24 543.56 18.81 543.56C14.91 543.56 12.97 541.37 12.97 537C12.97 234.91 12.97 67.08 12.97 33.52C12.97 29.12 14.91 26.94 18.81 26.94C382.78 26.94 584.97 26.94 625.42 26.94C629.3 26.94 631.25 29.12 631.25 33.52Z" id="b3rHcEutCp"></path><path d="M602.31 43.45C602.31 48.69 602.31 90.79 602.31 96.06C602.31 98.34 600.12 100.2 597.41 100.2C580.43 100.2 495.55 100.2 342.75 100.2C342.75 94.11 342.75 45.38 342.75 39.28C495.55 39.28 580.43 39.28 597.41 39.28C600.12 39.28 602.31 41.14 602.31 43.45Z" id="bdZtnNjrF"></path><path d="M523.48 59.59C523.48 70.9 523.48 77.18 523.48 78.43C523.48 80.01 522.76 80.8 521.36 80.8C460.43 80.8 426.57 80.8 419.8 80.8C418.38 80.8 417.68 80.01 417.68 78.43C417.68 67.14 417.68 60.84 417.68 59.59C417.68 58.01 418.38 57.24 419.8 57.24C480.73 57.24 514.59 57.24 521.36 57.24C522.76 57.24 523.48 58.01 523.48 59.59Z" id="bWSEgV7tw"></path><path d="M191.85 59.59C191.85 70.9 191.85 77.18 191.85 78.43C191.85 80.01 191.11 80.8 189.61 80.8C124.84 80.8 88.84 80.8 81.65 80.8C80.15 80.8 79.39 80.01 79.39 78.43C79.39 67.14 79.39 60.84 79.39 59.59C79.39 58.01 80.15 57.24 81.65 57.24C146.42 57.24 182.41 57.24 189.61 57.24C191.11 57.24 191.85 58.01 191.85 59.59Z" id="a5ftTk0lfE"></path><path d="M89.08 180.07C100.37 180.83 106.63 181.24 107.89 181.33C109.46 181.43 110.2 182.22 110.1 183.72C105.78 248.35 103.39 284.26 102.91 291.44C102.81 292.93 101.97 293.64 100.39 293.53C89.12 292.78 82.84 292.36 81.59 292.28C80.02 292.17 79.3 291.36 79.4 289.87C83.71 225.24 86.11 189.33 86.59 182.15C86.69 180.65 87.51 179.97 89.08 180.07Z" id="a3WMAv5XZL"></path><path d="M527.45 272.07C529.45 272.07 530.44 273.01 530.44 274.89C530.44 300.27 530.44 314.36 530.44 317.18C530.44 319.06 529.45 320 527.45 320C286.75 320 153.02 320 126.28 320C124.29 320 123.29 319.06 123.29 317.18C123.29 291.8 123.29 277.71 123.29 274.89C123.29 273.01 124.29 272.07 126.28 272.07C143.9 272.07 231.99 272.07 390.55 272.07C475.41 272.07 521.04 272.07 527.45 272.07Z" id="f1PiCME1hB"></path><path d="M532.39 349.4C532.39 372.46 532.39 385.26 532.39 387.82C532.39 389.53 531.38 390.39 529.37 390.39C286.37 390.39 151.37 390.39 124.36 390.39C122.36 390.39 121.34 389.53 121.34 387.82C121.34 364.77 121.34 351.97 121.34 349.4C121.34 347.7 122.36 346.84 124.36 346.84C367.37 346.84 502.36 346.84 529.37 346.84C531.38 346.84 532.39 347.7 532.39 349.4Z" id="b5ZE6K36Vf"></path><path d="M525.21 423.06C525.21 447.02 525.21 460.34 525.21 463.01C525.21 465.66 523.77 467 520.87 467C288.06 467 158.74 467 132.86 467C129.96 467 128.52 465.66 128.52 463.01C128.52 439.05 128.52 425.73 128.52 423.06C128.52 420.4 129.96 419.07 132.86 419.07C365.67 419.07 495.01 419.07 520.87 419.07C523.77 419.07 525.21 420.4 525.21 423.06Z" id="c19dSHOs1A"></path><path d="M496.63 438.31C496.63 443.51 496.63 446.41 496.63 446.98C496.63 448.9 495.67 449.87 493.77 449.87C452.66 449.87 429.82 449.87 425.24 449.87C423.34 449.87 422.38 448.9 422.38 446.98C422.38 441.77 422.38 438.88 422.38 438.31C422.38 436.37 423.34 435.42 425.24 435.42C466.35 435.42 489.19 435.42 493.77 435.42C495.67 435.42 496.63 436.37 496.63 438.31Z" id="c2i7QNu5iO"></path><path d="M459.93 458.03L465.45 456.56L471.17 478.92L471.17 478.92L465.65 480.39L459.93 458.03Z" id="bzAp5pxJ"></path><path d="M448.91 538.81L454.17 536.57L463.02 557.88L463.02 557.88L457.77 560.13L448.91 538.81Z" id="b35JH5h0oR"></path><path d="M462.9 462.26L464.16 462.02L477.65 463.76L457.53 437.71L453.45 469.26L462.9 462.26Z" id="b4I1Xwc6uF"></path><path d="M419.21 520.33L420.42 519.93L434.03 519.93L410.73 496.67L410.73 528.49L419.21 520.33Z" id="a1WPz7VM8X"></path><path d="M527.45 201.46C529.45 201.46 530.44 202.31 530.44 204.02C530.44 227.08 530.44 239.88 530.44 242.44C530.44 244.15 529.45 245 527.45 245C286.75 245 153.02 245 126.28 245C124.29 245 123.29 244.15 123.29 242.44C123.29 219.39 123.29 206.59 123.29 204.02C123.29 202.31 124.29 201.46 126.28 201.46C143.9 201.46 231.99 201.46 390.55 201.46C475.41 201.46 521.04 201.46 527.45 201.46Z" id="bxWpCo0U"></path></defs><g><g><g><use xlink:href="#b3rHcEutCp" opacity="1" fill="#f3f3f3" fill-opacity="1"></use><g><use xlink:href="#b3rHcEutCp" opacity="1" fill-opacity="0" stroke="#000000" stroke-width="1" stroke-opacity="0"></use></g></g><g><use xlink:href="#bdZtnNjrF" opacity="1" fill="#d2d8d8" fill-opacity="1"></use><g><use xlink:href="#bdZtnNjrF" opacity="1" fill-opacity="0" stroke="#000000" stroke-width="1" stroke-opacity="0"></use></g></g><g><use xlink:href="#bWSEgV7tw" opacity="1" fill="#ffffff" fill-opacity="1"></use><g><use xlink:href="#bWSEgV7tw" opacity="1" fill-opacity="0" stroke="#000000" stroke-width="1" stroke-opacity="0"></use></g></g><g><use xlink:href="#a5ftTk0lfE" opacity="1" fill="#343642" fill-opacity="1"></use><g><use xlink:href="#a5ftTk0lfE" opacity="1" fill-opacity="0" stroke="#000000" stroke-width="1" stroke-opacity="0"></use></g></g><g><use xlink:href="#a3WMAv5XZL" opacity="1" fill="#000000" fill-opacity="0"></use><g><use xlink:href="#a3WMAv5XZL" opacity="1" fill-opacity="0" stroke="#000000" stroke-width="1" stroke-opacity="0"></use></g></g><g><use xlink:href="#f1PiCME1hB" opacity="1" fill="#000000" fill-opacity="0"></use><g><use xlink:href="#f1PiCME1hB" opacity="1" fill-opacity="0" stroke="#000000" stroke-width="2" stroke-opacity="1"></use></g></g><g><use xlink:href="#b5ZE6K36Vf" opacity="1" fill="#000000" fill-opacity="0"></use><g><use xlink:href="#b5ZE6K36Vf" opacity="1" fill-opacity="0" stroke="#000000" stroke-width="2" stroke-opacity="1"></use></g></g><g><use xlink:href="#c19dSHOs1A" opacity="1" fill="#6772e5" fill-opacity="1"></use><g><use xlink:href="#c19dSHOs1A" opacity="1" fill-opacity="0" stroke="#000000" stroke-width="1" stroke-opacity="0"></use></g></g><g><use xlink:href="#c2i7QNu5iO" opacity="1" fill="#ffffff" fill-opacity="1"></use><g><use xlink:href="#c2i7QNu5iO" opacity="1" fill-opacity="0" stroke="#000000" stroke-width="1" stroke-opacity="0"></use></g></g><g><use xlink:href="#bzAp5pxJ" opacity="1" fill="#000000" fill-opacity="1"></use><g><use xlink:href="#bzAp5pxJ" opacity="1" fill-opacity="0" stroke="#000000" stroke-width="1" stroke-opacity="0"></use></g></g><g><use xlink:href="#b35JH5h0oR" opacity="1" fill="#000000" fill-opacity="0"></use><g><use xlink:href="#b35JH5h0oR" opacity="1" fill-opacity="0" stroke="#000000" stroke-width="1" stroke-opacity="0"></use></g></g><g><use xlink:href="#b4I1Xwc6uF" opacity="1" fill="#000000" fill-opacity="1"></use><g><use xlink:href="#b4I1Xwc6uF" opacity="1" fill-opacity="0" stroke="#000000" stroke-width="1" stroke-opacity="0"></use></g></g><g><use xlink:href="#a1WPz7VM8X" opacity="1" fill="#000000" fill-opacity="0"></use><g><use xlink:href="#a1WPz7VM8X" opacity="1" fill-opacity="0" stroke="#000000" stroke-width="1" stroke-opacity="0"></use></g></g><g><use xlink:href="#bxWpCo0U" opacity="1" fill="#000000" fill-opacity="0"></use><g><use xlink:href="#bxWpCo0U" opacity="1" fill-opacity="0" stroke="#000000" stroke-width="2" stroke-opacity="1"></use></g></g></g></g></svg>