<?xml version="1.0" encoding="UTF-8" standalone="no"?>
<!DOCTYPE svg PUBLIC "-//W3C//DTD SVG 1.1//EN" "http://www.w3.org/Graphics/SVG/1.1/DTD/svg11.dtd">
<svg version="1.1" xmlns="http://www.w3.org/2000/svg" xmlns:xlink="http://www.w3.org/1999/xlink" preserveAspectRatio="xMidYMid meet" viewBox="0 0 510 510" width="510" height="510"><defs><path d="M250.6 0.21C168.09 0.21 101.2 67.1 101.2 149.61C101.2 232.12 168.09 299.01 250.6 299.01C333.11 299.01 400 232.12 400 149.61C400 67.1 333.11 0.21 250.6 0.21Z" id="aDYm3FHQL"></path><path d="M250.6 26.28C182.48 26.28 127.26 81.5 127.26 149.61C127.26 217.73 182.48 272.95 250.6 272.95C318.72 272.95 373.94 217.73 373.94 149.61C373.94 81.5 318.72 26.28 250.6 26.28Z" id="cInlP4Lg6"></path><path d="M250.6 48.53C194.77 48.53 149.52 93.79 149.52 149.61C149.52 205.44 194.77 250.69 250.6 250.69C306.43 250.69 351.68 205.44 351.68 149.61C351.68 93.79 306.43 48.53 250.6 48.53Z" id="anBwkrjKS"></path><path d="M250.6 77.14C210.57 77.14 178.12 109.58 178.12 149.61C178.12 189.64 210.57 222.09 250.6 222.09C290.63 222.09 323.08 189.64 323.08 149.61C323.08 109.58 290.63 77.14 250.6 77.14Z" id="a4tVTvh7lE"></path><path d="M3.56 207.78C7.34 215.86 11.85 223.58 17.05 230.84C17.05 230.84 14 165.16 10.09 162.98C8.78 171.94 -1.66 196.04 3.56 207.78Z" id="ayWbZwjvo"></path><path d="M3.56 207.78C7.34 215.86 11.85 223.58 17.05 230.84C17.05 230.84 14 165.16 10.09 162.98C8.78 171.94 -1.66 196.04 3.56 207.78Z" id="a3MMBcE4Aw"></path><path d="M18.35 239.55C18.1 242.47 17.66 245.38 17.05 248.25C16.61 248.68 17.48 249.56 17.05 250.86C16.61 252.16 16.17 253.9 17.05 254.33C17.92 254.75 12.26 293.05 12.26 293.05C12.26 293.05 -1.66 311.32 3.99 340.03C4.17 342.94 5.56 366.26 5.74 369.18C5.74 369.18 19.22 370.05 19.22 365.26C18.79 362.52 18.5 359.76 18.35 356.99C18.35 354.39 20.53 354.39 19.22 353.08C17.92 351.77 17.92 350.91 17.92 350.91C17.92 350.91 20.09 349.16 19.66 348.73C19.23 348.29 23.57 317.41 23.57 317.41C23.57 317.41 28.36 312.62 28.36 310.01C28.36 309.75 28.36 307.66 28.36 307.4C28.36 307.4 30.53 301.75 30.53 301.31C30.53 301.31 42.28 274.34 42.28 274.34C42.6 275.62 44.19 282 47.06 293.48C50.2 309.93 51.94 319.06 52.28 320.89C52.28 320.89 54.89 345.69 60.11 355.26C60.11 355.26 69.26 386.58 69.26 385.71C69.26 384.84 84.49 382.66 84.05 378.75C83.62 374.83 74.91 320.02 74.91 320.02C75.05 314.6 75.78 287.48 77.09 238.68C45.76 239.14 26.18 239.43 18.35 239.55Z" id="b3IrmAdIoe"></path><path d="M6.61 367.02C6.61 367.02 -5.14 390.07 2.69 390.95C2.69 390.95 13.57 391.82 17.05 388.34C19.79 385.94 22.76 383.8 25.91 381.96C29.66 379.67 31.77 375.43 31.35 371.06C31.12 368.93 30.32 367.18 28.36 367.01C24.24 366.19 20.36 364.4 17.05 361.79C14.97 362.84 8.7 365.97 6.61 367.02Z" id="b3FIGMGKm"></path><path d="M71.43 383.98C71.43 383.98 59.68 407.03 67.51 407.91C67.51 407.91 78.39 408.78 81.87 405.3C84.61 402.9 87.58 400.76 90.73 398.92C94.48 396.63 96.59 392.4 96.16 388.02C95.93 385.89 95.14 384.14 93.18 383.98C89.05 383.15 85.18 381.37 81.87 378.76C79.78 379.8 73.52 382.93 71.43 383.98Z" id="f4AGZwSw4"></path><path d="M59.01 88.68C48.91 88.68 40.72 96.86 40.72 106.96C40.72 117.06 48.91 125.25 59.01 125.25C69.11 125.25 77.3 117.06 77.3 106.96C77.3 96.86 69.11 88.68 59.01 88.68Z" id="b18sIuj78K"></path><path d="M47.26 112.97C47.26 112.97 34.19 137.01 33.15 137.01C33.15 137.01 56.66 144.84 56.66 144.84C56.66 144.84 63.45 121.85 64.5 119.76C61.05 118.4 50.71 114.33 47.26 112.97Z" id="b3BCtJfr8I"></path><path d="M38.59 125.35C38.59 125.35 8.14 150.15 8.57 160.15C9.32 169.07 10.63 177.94 12.49 186.69C12.49 186.69 13.79 232.8 16.4 233.24C16.4 233.24 15.97 241.5 16.84 241.5C16.84 241.5 77.74 241.5 78.18 240.2C78.61 238.89 67.3 139.27 67.3 139.27C61.56 136.49 41.19 124.92 38.59 125.35Z" id="c37Lt4SzdZ"></path><path d="M81.87 242.59C81.87 242.59 90.13 267.83 83.17 266.95C83.17 266.95 73.17 245.2 73.17 245.2C74.91 244.68 80.13 243.12 81.87 242.59Z" id="b3XJrdmt3u"></path><path d="M46.19 162.99C46.19 162.99 53.59 206.49 53.59 206.49C54.66 208.84 60.03 220.59 69.68 241.73L71.42 248.26L83.17 245.21C77.94 214.93 75.04 198.1 74.46 194.74C74.46 194.74 71.42 140.79 67.51 139.05C65.04 138 62.36 137.56 59.68 137.75C59.68 137.75 43.59 141.22 46.19 162.99Z" id="b2meWd5YoS"></path><path d="M49.89 205.84L69.9 241.51L53.05 203.92L49.89 205.84Z" id="gb1oAlLZ9g"></path><path d="M77.29 100.18C78.96 100.6 79.89 100.83 80.07 100.87C80.01 99.96 79.55 99.13 78.82 98.58C79.12 98.57 81.49 98.44 81.79 98.42C76.76 91.29 69.04 86.51 60.42 85.22C53.96 83.95 47.28 85.87 42.49 90.38C40.43 92.77 38.93 95.58 38.07 98.61C36.32 104.12 35.96 110.69 39.62 115.17C43.33 119.72 49.83 120.61 55.67 121.16C57.72 121.53 59.82 121.38 61.8 120.75C62.01 118.56 61.73 116.35 60.98 114.29C60.67 113.65 60.52 112.94 60.54 112.23C60.8 110.49 63.12 110.05 64.87 110.29C66.61 110.52 68.71 110.88 69.85 109.54C70.49 108.5 70.78 107.29 70.7 106.07C70.97 102.81 77.19 102.27 77.23 101.58C77.24 101.39 77.26 100.93 77.29 100.18Z" id="e3ODh8q1sw"></path></defs><g><g><g><use xlink:href="#aDYm3FHQL" opacity="1" fill="#6772e5" fill-opacity="1"></use><g><use xlink:href="#aDYm3FHQL" opacity="1" fill-opacity="0" stroke="#000000" stroke-width="1" stroke-opacity="0"></use></g></g><g><use xlink:href="#cInlP4Lg6" opacity="1" fill="#8791f5" fill-opacity="1"></use><g><use xlink:href="#cInlP4Lg6" opacity="1" fill-opacity="0" stroke="#000000" stroke-width="1" stroke-opacity="0"></use></g></g><g><use xlink:href="#anBwkrjKS" opacity="1" fill="#949cf2" fill-opacity="1"></use><g><use xlink:href="#anBwkrjKS" opacity="1" fill-opacity="0" stroke="#000000" stroke-width="1" stroke-opacity="0"></use></g></g><g><use xlink:href="#a4tVTvh7lE" opacity="1" fill="#6772e5" fill-opacity="1"></use><g><use xlink:href="#a4tVTvh7lE" opacity="1" fill-opacity="0" stroke="#000000" stroke-width="1" stroke-opacity="0"></use></g></g><g><use xlink:href="#ayWbZwjvo" opacity="1" fill="#d0cde1" fill-opacity="1"></use><g><use xlink:href="#ayWbZwjvo" opacity="1" fill-opacity="0" stroke="#000000" stroke-width="1" stroke-opacity="0"></use></g></g><g><use xlink:href="#a3MMBcE4Aw" opacity="1" fill="#000000" fill-opacity="1"></use><g><use xlink:href="#a3MMBcE4Aw" opacity="1" fill-opacity="0" stroke="#000000" stroke-width="1" stroke-opacity="0"></use></g></g><g><use xlink:href="#b3IrmAdIoe" opacity="1" fill="#2f2e41" fill-opacity="1"></use><g><use xlink:href="#b3IrmAdIoe" opacity="1" fill-opacity="0" stroke="#000000" stroke-width="1" stroke-opacity="0"></use></g></g><g><use xlink:href="#b3FIGMGKm" opacity="1" fill="#2f2e41" fill-opacity="1"></use><g><use xlink:href="#b3FIGMGKm" opacity="1" fill-opacity="0" stroke="#000000" stroke-width="1" stroke-opacity="0"></use></g></g><g><use xlink:href="#f4AGZwSw4" opacity="1" fill="#2f2e41" fill-opacity="1"></use><g><use xlink:href="#f4AGZwSw4" opacity="1" fill-opacity="0" stroke="#000000" stroke-width="1" stroke-opacity="0"></use></g></g><g><use xlink:href="#b18sIuj78K" opacity="1" fill="#ffb8b8" fill-opacity="1"></use><g><use xlink:href="#b18sIuj78K" opacity="1" fill-opacity="0" stroke="#000000" stroke-width="1" stroke-opacity="0"></use></g></g><g><use xlink:href="#b3BCtJfr8I" opacity="1" fill="#ffb8b8" fill-opacity="1"></use><g><use xlink:href="#b3BCtJfr8I" opacity="1" fill-opacity="0" stroke="#000000" stroke-width="1" stroke-opacity="0"></use></g></g><g><use xlink:href="#c37Lt4SzdZ" opacity="1" fill="#d0cde1" fill-opacity="1"></use><g><use xlink:href="#c37Lt4SzdZ" opacity="1" fill-opacity="0" stroke="#000000" stroke-width="1" stroke-opacity="0"></use></g></g><g><use xlink:href="#b3XJrdmt3u" opacity="1" fill="#ffb8b8" fill-opacity="1"></use><g><use xlink:href="#b3XJrdmt3u" opacity="1" fill-opacity="0" stroke="#000000" stroke-width="1" stroke-opacity="0"></use></g></g><g><use xlink:href="#b2meWd5YoS" opacity="1" fill="#d0cde1" fill-opacity="1"></use><g><use xlink:href="#b2meWd5YoS" opacity="1" fill-opacity="0" stroke="#000000" stroke-width="1" stroke-opacity="0"></use></g></g><g><use xlink:href="#gb1oAlLZ9g" opacity="1" fill="#000000" fill-opacity="1"></use><g><use xlink:href="#gb1oAlLZ9g" opacity="1" fill-opacity="0" stroke="#000000" stroke-width="1" stroke-opacity="0"></use></g></g><g><use xlink:href="#e3ODh8q1sw" opacity="1" fill="#2f2e41" fill-opacity="1"></use><g><use xlink:href="#e3ODh8q1sw" opacity="1" fill-opacity="0" stroke="#000000" stroke-width="1" stroke-opacity="0"></use></g></g></g></g></svg>